#N canvas 231 23 684 667 10;
#X obj 56 500 random 90;
#X obj 56 526 - 45;
#X obj 56 602 outlet;
#X obj 56 198 inlet;
#X obj 88 235 r seq;
#X obj 88 267 spigot;
#X obj 121 198 inlet;
#X obj 133 220 loadbang;
#X msg 133 242 0;
#X obj 88 288 bng 15 250 50 0 empty empty empty 17 7 0 10 -262144 -1
-1;
#X obj 197 195 inlet;
#X obj 107 480 * 2;
#X obj 197 418 t f f;
#X obj 200 223 hsl 128 15 0 1 0 0 empty empty empty -2 -8 0 10 -262144
-1 -1 12700 1;
#X obj 206 279 abs;
#X obj 197 397 *;
#X obj 206 348 -;
#X obj 206 302 t b f;
#X obj 206 369 t b f;
#X obj 396 201 inlet;
#X msg 206 325 45;
#X obj 395 272 t f f;
#X obj 56 563 +;
#X obj 399 231 hsl 128 15 -45 45 0 0 empty empty empty -2 -8 0 10 -262144
-1 -1 6350 1;
#X text 253 194 ambitus (0-1);
#X text 443 201 deviation from center (-45-45);
#X obj 103 145 hsl 95 15 -45 45 0 0 empty empty L/R_Offset 5 8 0 10
-262144 -1 -1 4700 1;
#X obj 103 131 hsl 95 15 0 1 0 0 empty empty Ambitus 5 8 0 10 -262144
-1 -1 9400 1;
#X obj 35 48 loadbang;
#X msg 35 69 0;
#X msg 65 70 1;
#X obj 185 116 tgl 15 0 empty empty empty 17 7 0 10 -262144 -1 -1 0
1;
#X text 157 114 seq?;
#X connect 0 0 1 0;
#X connect 1 0 22 0;
#X connect 3 0 0 0;
#X connect 4 0 5 0;
#X connect 5 0 9 0;
#X connect 6 0 5 1;
#X connect 7 0 8 0;
#X connect 8 0 5 1;
#X connect 9 0 0 0;
#X connect 10 0 13 0;
#X connect 11 0 0 1;
#X connect 12 0 11 0;
#X connect 12 1 1 1;
#X connect 13 0 15 0;
#X connect 14 0 17 0;
#X connect 15 0 12 0;
#X connect 16 0 18 0;
#X connect 17 0 20 0;
#X connect 17 1 16 1;
#X connect 18 0 15 0;
#X connect 18 1 15 1;
#X connect 19 0 23 0;
#X connect 20 0 16 0;
#X connect 21 0 22 1;
#X connect 21 1 14 0;
#X connect 22 0 2 0;
#X connect 23 0 21 0;
#X connect 26 0 23 0;
#X connect 27 0 13 0;
#X connect 28 0 29 0;
#X connect 28 0 30 0;
#X connect 29 0 26 0;
#X connect 30 0 27 0;
#X connect 31 0 5 1;
#X coords 0 -1 1 1 100 60 1 100 100;
