#N canvas 464 23 546 536 10;
#X obj 28 210 random 90;
#X obj 28 236 - 45;
#X obj 28 312 outlet;
#X obj 68 -145 inlet;
#X obj 137 -115 inlet;
#X obj 137 169 * 2;
#X obj 137 108 t f f;
#X obj 140 -87 hsl 128 15 0 1 0 0 empty empty empty -2 -8 0 10 -262144
-1 -1 12700 1;
#X obj 146 -31 abs;
#X obj 137 87 *;
#X obj 146 38 -;
#X obj 146 -8 t b f;
#X obj 146 59 t b f;
#X obj 304 -116 inlet;
#X msg 146 15 45;
#X obj 303 -45 t f f;
#X obj 28 273 +;
#X obj 307 -86 hsl 128 15 -45 45 0 0 empty empty empty -2 -8 0 10 -262144
-1 -1 6350 1;
#X text 193 -116 ambitus (0-1);
#X text 351 -116 deviation from center (-45-45);
#X obj 138 -146 f \$1;
#X obj 304 -140 f \$2;
#X obj 138 -182 loadbang;
#X obj 27 97 metro;
#X obj 27 -144 inlet;
#X obj 28 6 tgl 15 0 empty empty empty 17 7 0 10 -262144 -1 -1 0 222.222
;
#X obj 68 -37 spigot;
#X obj 68 -70 t 1 f 0;
#X msg 101 -104 0;
#X connect 0 0 1 0;
#X connect 1 0 16 0;
#X connect 3 0 27 0;
#X connect 4 0 7 0;
#X connect 5 0 0 1;
#X connect 6 0 5 0;
#X connect 6 1 1 1;
#X connect 7 0 9 0;
#X connect 8 0 11 0;
#X connect 9 0 6 0;
#X connect 10 0 12 0;
#X connect 11 0 14 0;
#X connect 11 1 10 1;
#X connect 12 0 9 0;
#X connect 12 1 9 1;
#X connect 13 0 17 0;
#X connect 14 0 10 0;
#X connect 15 0 16 1;
#X connect 15 1 8 0;
#X connect 16 0 2 0;
#X connect 17 0 15 0;
#X connect 20 0 7 0;
#X connect 21 0 17 0;
#X connect 22 0 20 0;
#X connect 22 0 21 0;
#X connect 22 0 28 0;
#X connect 23 0 0 0;
#X connect 24 0 25 0;
#X connect 25 0 26 1;
#X connect 25 0 23 0;
#X connect 26 0 25 0;
#X connect 27 0 26 0;
#X connect 27 1 23 1;
#X connect 27 2 26 0;
#X connect 28 0 26 1;
#X coords 0 536 1 535 100 60 0;
