#N canvas 1334 461 490 343 10;
#X obj 44 154 ctlin 20;
#X obj 44 192 sel 0 127;
#X msg 76 217 1;
#X msg 44 216 0;
#X obj 113 193 sel 0 127;
#X msg 145 218 1;
#X msg 113 217 0;
#X obj 44 76 sel 0 127;
#X msg 76 101 1;
#X msg 44 100 0;
#X obj 117 75 sel 0 127;
#X msg 149 100 1;
#X msg 117 99 0;
#X obj 113 155 ctlin 21;
#X obj 44 38 ctlin 22;
#X obj 117 37 ctlin 23;
#X obj 306 33 ctlin 7;
#X obj 43 251 outlet;
#X obj 88 251 outlet;
#X obj 134 251 outlet;
#X obj 181 251 outlet;
#X obj 308 250 outlet;
#X text 44 129 A;
#X text 111 128 B;
#X text 48 10 C;
#X text 113 7 D;
#X connect 0 0 1 0;
#X connect 1 0 3 0;
#X connect 1 1 2 0;
#X connect 2 0 17 0;
#X connect 3 0 17 0;
#X connect 4 0 6 0;
#X connect 4 1 5 0;
#X connect 5 0 18 0;
#X connect 6 0 18 0;
#X connect 7 0 9 0;
#X connect 7 1 8 0;
#X connect 8 0 19 0;
#X connect 9 0 19 0;
#X connect 10 0 12 0;
#X connect 10 1 11 0;
#X connect 11 0 20 0;
#X connect 12 0 20 0;
#X connect 13 0 4 0;
#X connect 14 0 7 0;
#X connect 15 0 10 0;
#X connect 16 0 21 0;
