#N canvas 194 265 984 377 10;
#X obj 10 120 bng 15 250 50 0 \$0bs1 \$0br1 empty 17 7 0 10 -262144
-1 -1;
#X obj 25 120 bng 15 250 50 0 \$0bs2 \$0br2 empty 17 7 0 10 -262144
-1 -1;
#X obj 40 120 bng 15 250 50 0 \$0bs3 \$0br3 empty 17 7 0 10 -262144
-1 -1;
#X obj 55 120 bng 15 250 50 0 \$0bs4 \$0br4 empty 17 7 0 10 -262144
-1 -1;
#X obj 70 120 bng 15 250 50 0 \$0bs5 \$0br5 empty 17 7 0 10 -262144
-1 -1;
#X obj 85 120 bng 15 250 50 0 \$0bs6 \$0br6 empty 17 7 0 10 -262144
-1 -1;
#X obj 100 120 bng 15 250 50 0 \$0bs7 \$0br7 empty 17 7 0 10 -262144
-1 -1;
#X obj 115 120 bng 15 250 50 0 \$0bs8 \$0br8 empty 17 7 0 10 -262144
-1 -1;
#X obj 10 137 vsl 15 64 0 1 0 0 \$0-volSliderOut1 \$0-volSliderIn1
1 5 8 0 10 -262144 -1 -1 5670 1;
#X obj 25 137 vsl 15 64 0 1 0 0 \$0-volSliderOut2 \$0-volSliderIn2
2 5 8 0 10 -262144 -1 -1 5670 1;
#X obj 40 137 vsl 15 64 0 1 0 0 \$0-volSliderOut3 \$0-volSliderIn3
3 5 8 0 10 -262144 -1 -1 5670 1;
#X obj 55 137 vsl 15 64 0 1 0 0 \$0-volSliderOut4 \$0-volSliderIn4
4 5 8 0 10 -262144 -1 -1 5670 1;
#X obj 70 137 vsl 15 64 0 1 0 0 \$0-volSliderOut5 \$0-volSliderIn5
5 5 8 0 10 -262144 -1 -1 5670 1;
#X obj 85 137 vsl 15 64 0 1 0 0 \$0-volSliderOut6 \$0-volSliderIn6
6 5 8 0 10 -262144 -1 -1 5670 1;
#X obj 100 137 vsl 15 64 0 1 0 0 \$0-volSliderOut7 \$0-volSliderIn7
7 5 8 0 10 -262144 -1 -1 5670 1;
#X obj 115 137 vsl 15 64 0 1 0 0 \$0-volSliderOut8 \$0-volSliderIn8
8 5 8 0 10 -262144 -1 -1 5670 1;
#X obj 130 120 bng 15 250 50 0 \$0bs9 \$0br9 empty 17 7 0 10 -262144
-1 -1;
#X obj 145 120 bng 15 250 50 0 \$0bs10 \$0br10 empty 17 7 0 10 -262144
-1 -1;
#X obj 160 120 bng 15 250 50 0 \$0bs11 \$0br11 empty 17 7 0 10 -262144
-1 -1;
#X obj 175 120 bng 15 250 50 0 \$0bs12 \$0br12 empty 17 7 0 10 -262144
-1 -1;
#X obj 190 120 bng 15 250 50 0 \$0bs13 \$0br13 empty 17 7 0 10 -262144
-1 -1;
#X obj 205 120 bng 15 250 50 0 \$0bs14 \$0br14 empty 17 7 0 10 -262144
-1 -1;
#X obj 220 120 bng 15 250 50 0 \$0bs15 \$0br15 empty 17 7 0 10 -262144
-1 -1;
#X obj 235 120 bng 15 250 50 0 \$0bs16 \$0br16 empty 17 7 0 10 -262144
-1 -1;
#X obj 130 137 vsl 15 64 0 1 0 0 \$0-volSliderOut9 \$0-volSliderIn9
9 5 8 0 10 -262144 -1 -1 5670 1;
#X obj 145 137 vsl 15 64 0 1 0 0 \$0-volSliderOut10 \$0-volSliderIn10
10 3 8 0 10 -262144 -1 -1 5670 1;
#X obj 160 137 vsl 15 64 0 1 0 0 \$0-volSliderOut11 \$0-volSliderIn11
11 3 8 0 10 -262144 -1 -1 5670 1;
#X obj 175 137 vsl 15 64 0 1 0 0 \$0-volSliderOut12 \$0-volSliderIn12
12 3 8 0 10 -262144 -1 -1 5670 1;
#X obj 190 137 vsl 15 64 0 1 0 0 \$0-volSliderOut13 \$0-volSliderIn13
13 3 8 0 10 -262144 -1 -1 5670 1;
#X obj 205 137 vsl 15 64 0 1 0 0 \$0-volSliderOut14 \$0-volSliderIn14
14 3 8 0 10 -262144 -1 -1 5670 1;
#X obj 220 137 vsl 15 64 0 1 0 0 \$0-volSliderOut15 \$0-volSliderIn15
15 3 8 0 10 -262144 -1 -1 5670 1;
#X obj 235 137 vsl 15 64 0 1 0 0 \$0-volSliderOut16 \$0-volSliderIn16
16 3 8 0 10 -262144 -1 -1 5670 1;
#N canvas 722 118 450 278 (subpatch) 0;
#X array \$0-sequencerVol 16 float 1;
#A 0 0.9 0.9 0.9 0.9 0.9 0.9 0.9 0.9 0.9 0.9 0.9 0.9 0.9 0.9 0.9 0.9
;
#X coords 0 1 15 0 238 99 2 0 0;
#X restore 11 220 graph;
#N canvas 694 224 758 548 volTabReadWrite 0;
#X obj 51 313 tabwrite \$0-sequencerVol;
#X obj 321 317 tabread \$0-sequencerVol;
#N canvas 654 423 646 566 sliderReceive 0;
#X obj 40 25 r \$0-volSliderOut1;
#X obj 165 49 pack f 1;
#X obj 296 52 pack f 2;
#X obj 425 52 pack f 3;
#X obj 57 109 pack f 4;
#X obj 180 107 pack f 5;
#X obj 312 112 pack f 6;
#X obj 440 114 pack f 7;
#X obj 70 164 pack f 8;
#X obj 195 163 pack f 9;
#X obj 327 166 pack f 10;
#X obj 453 167 pack f 11;
#X obj 86 224 pack f 12;
#X obj 215 226 pack f 13;
#X obj 342 226 pack f 14;
#X obj 470 229 pack f 15;
#X obj 167 25 r \$0-volSliderOut2;
#X obj 296 29 r \$0-volSliderOut3;
#X obj 423 29 r \$0-volSliderOut4;
#X obj 57 84 r \$0-volSliderOut5;
#X obj 184 84 r \$0-volSliderOut6;
#X obj 313 88 r \$0-volSliderOut7;
#X obj 440 88 r \$0-volSliderOut8;
#X obj 69 138 r \$0-volSliderOut9;
#X obj 196 138 r \$0-volSliderOut10;
#X obj 325 142 r \$0-volSliderOut11;
#X obj 452 142 r \$0-volSliderOut12;
#X obj 87 200 r \$0-volSliderOut13;
#X obj 214 200 r \$0-volSliderOut14;
#X obj 343 204 r \$0-volSliderOut15;
#X obj 470 204 r \$0-volSliderOut16;
#X obj 41 523 outlet;
#X obj 40 50 pack f 0;
#X connect 0 0 32 0;
#X connect 1 0 31 0;
#X connect 2 0 31 0;
#X connect 3 0 31 0;
#X connect 4 0 31 0;
#X connect 5 0 31 0;
#X connect 6 0 31 0;
#X connect 7 0 31 0;
#X connect 8 0 31 0;
#X connect 9 0 31 0;
#X connect 10 0 31 0;
#X connect 11 0 31 0;
#X connect 12 0 31 0;
#X connect 13 0 31 0;
#X connect 14 0 31 0;
#X connect 15 0 31 0;
#X connect 16 0 1 0;
#X connect 17 0 2 0;
#X connect 18 0 3 0;
#X connect 19 0 4 0;
#X connect 20 0 5 0;
#X connect 21 0 6 0;
#X connect 22 0 7 0;
#X connect 23 0 8 0;
#X connect 24 0 9 0;
#X connect 25 0 10 0;
#X connect 26 0 11 0;
#X connect 27 0 12 0;
#X connect 28 0 13 0;
#X connect 29 0 14 0;
#X connect 30 0 15 0;
#X connect 32 0 31 0;
#X restore 51 274 pd sliderReceive;
#X obj 321 244 f;
#X obj 348 244 + 1;
#X obj 321 188 tgl 15 0 empty empty empty 17 7 0 10 -262144 -1 -1 0
1;
#X obj 355 150 t 0 0;
#X obj 321 113 bng 15 250 50 0 empty empty empty 17 7 0 10 -262144
-1 -1;
#X obj 355 118 sel 15;
#X text 405 117 count through each array value once;
#X obj 321 277 t f f;
#X text 366 277 set index for both array and pack;
#X text 374 343 format message 1 index 2 value;
#X obj 348 381 + 1;
#X obj 321 500 s;
#X obj 348 437 pack \$0 f;
#X obj 348 407 t b f;
#X text 506 457 format send names;
#X msg 348 460 symbol \$1-volSliderIn\$2;
#X obj 321 213 metro 50;
#X obj 321 35 inlet;
#X connect 1 0 14 0;
#X connect 2 0 0 0;
#X connect 3 0 4 0;
#X connect 3 0 8 0;
#X connect 3 0 10 0;
#X connect 4 0 3 1;
#X connect 5 0 19 0;
#X connect 6 0 3 1;
#X connect 6 1 5 0;
#X connect 7 0 5 0;
#X connect 8 0 6 0;
#X connect 10 0 1 0;
#X connect 10 1 13 0;
#X connect 13 0 16 0;
#X connect 15 0 18 0;
#X connect 16 0 15 0;
#X connect 16 1 15 1;
#X connect 18 0 14 1;
#X connect 19 0 3 0;
#X connect 20 0 7 0;
#X restore 234 342 pd volTabReadWrite;
#X obj 234 319 bng 15 250 50 0 empty empty empty 17 7 0 10 -262144
-1 -1;
#X text 172 318 ArrayWrite;
#N canvas 206 23 571 308 keypad 0;
#X obj -2 139 sel 97;
#X obj 65 140 sel 115;
#X obj 183 141 sel 102;
#X obj 126 140 sel 100;
#X obj 251 141 sel 103;
#X obj 314 141 sel 104;
#X obj 374 141 sel 106;
#X obj 434 141 sel 107;
#X text -5 28 patch assumes receiving key info from a spigoted key
object with send "key";
#X obj -2 114 r key-\$0;
#X obj 251 116 r key-\$0;
#X obj 65 115 r key-\$0;
#X obj 314 116 r key-\$0;
#X obj 126 115 r key-\$0;
#X obj 374 116 r key-\$0;
#X obj 183 116 r key-\$0;
#X obj 434 116 r key-\$0;
#X obj -2 164 s \$0br1;
#X obj 65 166 s \$0br2;
#X obj 126 165 s \$0br3;
#X obj 183 166 s \$0br4;
#X obj 251 166 s \$0br5;
#X obj 314 166 s \$0br6;
#X obj 374 166 s \$0br7;
#X obj 434 166 s \$0br8;
#X obj 21 203 r key-\$0;
#X obj 274 205 r key-\$0;
#X obj 88 204 r key-\$0;
#X obj 337 205 r key-\$0;
#X obj 149 204 r key-\$0;
#X obj 397 205 r key-\$0;
#X obj 206 205 r key-\$0;
#X obj 457 205 r key-\$0;
#X obj 21 253 s \$0br9;
#X obj 88 255 s \$0br10;
#X obj 149 254 s \$0br11;
#X obj 204 255 s \$0br12;
#X obj 274 255 s \$0br13;
#X obj 337 255 s \$0br14;
#X obj 398 255 s \$0br15;
#X obj 457 255 s \$0br16;
#X obj 21 228 sel 122;
#X obj 88 229 sel 120;
#X obj 149 229 sel 99;
#X obj 206 230 sel 118;
#X obj 274 230 sel 98;
#X obj 337 230 sel 110;
#X obj 397 231 sel 109;
#X obj 457 230 sel 44;
#X connect 0 0 17 0;
#X connect 1 0 18 0;
#X connect 2 0 20 0;
#X connect 3 0 19 0;
#X connect 4 0 21 0;
#X connect 5 0 22 0;
#X connect 6 0 23 0;
#X connect 7 0 24 0;
#X connect 9 0 0 0;
#X connect 10 0 4 0;
#X connect 11 0 1 0;
#X connect 12 0 5 0;
#X connect 13 0 3 0;
#X connect 14 0 6 0;
#X connect 15 0 2 0;
#X connect 16 0 7 0;
#X connect 25 0 41 0;
#X connect 26 0 45 0;
#X connect 27 0 42 0;
#X connect 28 0 46 0;
#X connect 29 0 43 0;
#X connect 30 0 47 0;
#X connect 31 0 44 0;
#X connect 32 0 48 0;
#X connect 41 0 33 0;
#X connect 42 0 34 0;
#X connect 43 0 35 0;
#X connect 44 0 36 0;
#X connect 45 0 37 0;
#X connect 46 0 38 0;
#X connect 47 0 39 0;
#X connect 48 0 40 0;
#X restore 754 207 pd keypad;
#X obj 754 95 key;
#X floatatom 754 121 5 0 0 0 - - -;
#X obj 787 92 tgl 15 0 empty empty empty 17 7 0 10 -262144 -1 -1 0
1;
#X obj 754 151 spigot;
#X text 806 88 key control ON/OFF;
#X obj 754 179 s key-\$0;
#N canvas 644 148 462 393 initialValues 1;
#X obj -663 23 loadbang;
#X obj -663 56 f \$0;
#X obj -599 30 bng 15 250 50 0 empty empty empty 17 7 0 10 -262144
-1 -1;
#X msg -664 100 \; \$1-volSliderIn1 0.9 \; \$1-volSliderIn2 0.9 \;
\$1-volSliderIn3 0.9 \; \$1-volSliderIn4 0.9 \; \$1-volSliderIn5 0.9
\; \$1-volSliderIn6 0.9 \; \$1-volSliderIn7 0.9 \; \$1-volSliderIn8
0.9 \; \$1-volSliderIn9 0.9 \; \$1-volSliderIn10 0.9 \; \$1-volSliderIn11
0.9 \; \$1-volSliderIn12 0.9 \; \$1-volSliderIn13 0.9 \; \$1-volSliderIn14
0.9 \; \$1-volSliderIn15 0.9 \; \$1-volSliderIn16 0.9 \; \$0-volSliderInM
1 \;;
#X connect 0 0 1 0;
#X connect 1 0 3 0;
#X connect 2 0 1 0;
#X restore 571 215 pd initialValues;
#N canvas 150 195 756 456 soundFileBank 0;
#N canvas 1292 456 351 468 sfReader1 0;
#X obj 101 261 readsf~ 2;
#X msg 101 204 open \$1;
#X obj 101 173 symbol;
#X msg 57 204 start;
#X obj 101 354 *~;
#X obj 159 353 *~;
#X obj 101 404 outlet~;
#X obj 159 404 outlet~;
#X obj 174 302 r \$0-volSliderOut1;
#X obj 57 15 r \$0bs1;
#X obj 57 124 t b b;
#X obj 134 17 r \$0-soundFileName1;
#X connect 0 0 4 0;
#X connect 0 1 5 0;
#X connect 1 0 0 0;
#X connect 2 0 1 0;
#X connect 3 0 0 0;
#X connect 4 0 6 0;
#X connect 5 0 7 0;
#X connect 8 0 5 1;
#X connect 8 0 4 1;
#X connect 9 0 10 0;
#X connect 10 0 3 0;
#X connect 10 1 2 0;
#X connect 11 0 2 1;
#X restore -118 54 pd sfReader1;
#N canvas 101 262 351 468 sfReader2 0;
#X obj 101 261 readsf~ 2;
#X msg 101 204 open \$1;
#X obj 101 173 symbol;
#X msg 57 204 start;
#X obj 101 354 *~;
#X obj 159 353 *~;
#X obj 101 404 outlet~;
#X obj 159 404 outlet~;
#X obj 57 124 t b b;
#X obj 57 15 r \$0bs2;
#X obj 174 302 r \$0-volSliderOut2;
#X obj 134 17 r \$0-soundFileName2;
#X connect 0 0 4 0;
#X connect 0 1 5 0;
#X connect 1 0 0 0;
#X connect 2 0 1 0;
#X connect 3 0 0 0;
#X connect 4 0 6 0;
#X connect 5 0 7 0;
#X connect 8 0 3 0;
#X connect 8 1 2 0;
#X connect 9 0 8 0;
#X connect 10 0 5 1;
#X connect 10 0 4 1;
#X connect 11 0 2 1;
#X restore -39 54 pd sfReader2;
#N canvas 1316 441 351 468 sfReader3 0;
#X obj 101 261 readsf~ 2;
#X msg 101 204 open \$1;
#X obj 101 173 symbol;
#X msg 57 204 start;
#X obj 101 354 *~;
#X obj 159 353 *~;
#X obj 101 404 outlet~;
#X obj 159 404 outlet~;
#X obj 57 124 t b b;
#X obj 57 15 r \$0bs3;
#X obj 174 302 r \$0-volSliderOut3;
#X obj 135 18 r \$0-soundFileName3;
#X connect 0 0 4 0;
#X connect 0 1 5 0;
#X connect 1 0 0 0;
#X connect 2 0 1 0;
#X connect 3 0 0 0;
#X connect 4 0 6 0;
#X connect 5 0 7 0;
#X connect 8 0 3 0;
#X connect 8 1 2 0;
#X connect 9 0 8 0;
#X connect 10 0 5 1;
#X connect 10 0 4 1;
#X connect 11 0 2 1;
#X restore 41 54 pd sfReader3;
#N canvas 1316 441 351 468 sfReader4 0;
#X obj 101 261 readsf~ 2;
#X msg 101 204 open \$1;
#X obj 101 173 symbol;
#X msg 57 204 start;
#X obj 101 354 *~;
#X obj 159 353 *~;
#X obj 101 404 outlet~;
#X obj 159 404 outlet~;
#X obj 57 124 t b b;
#X obj 57 16 r \$0bs4;
#X obj 174 302 r \$0-volSliderOut4;
#X obj 134 17 r \$0-soundFileName4;
#X connect 0 0 4 0;
#X connect 0 1 5 0;
#X connect 1 0 0 0;
#X connect 2 0 1 0;
#X connect 3 0 0 0;
#X connect 4 0 6 0;
#X connect 5 0 7 0;
#X connect 8 0 3 0;
#X connect 8 1 2 0;
#X connect 9 0 8 0;
#X connect 10 0 5 1;
#X connect 10 0 4 1;
#X connect 11 0 2 1;
#X restore 120 54 pd sfReader4;
#N canvas 1316 441 351 468 sfReader5 0;
#X obj 101 261 readsf~ 2;
#X msg 101 204 open \$1;
#X obj 101 173 symbol;
#X msg 57 204 start;
#X obj 101 354 *~;
#X obj 159 353 *~;
#X obj 101 404 outlet~;
#X obj 159 404 outlet~;
#X obj 57 124 t b b;
#X obj 57 15 r \$0bs5;
#X obj 174 302 r \$0-volSliderOut5;
#X obj 134 17 r \$0-soundFileName5;
#X connect 0 0 4 0;
#X connect 0 1 5 0;
#X connect 1 0 0 0;
#X connect 2 0 1 0;
#X connect 3 0 0 0;
#X connect 4 0 6 0;
#X connect 5 0 7 0;
#X connect 8 0 3 0;
#X connect 8 1 2 0;
#X connect 9 0 8 0;
#X connect 10 0 5 1;
#X connect 10 0 4 1;
#X connect 11 0 2 1;
#X restore 199 54 pd sfReader5;
#N canvas 1316 441 351 468 sfReader6 0;
#X obj 101 261 readsf~ 2;
#X msg 101 204 open \$1;
#X obj 101 173 symbol;
#X msg 57 204 start;
#X obj 101 354 *~;
#X obj 159 353 *~;
#X obj 101 404 outlet~;
#X obj 159 404 outlet~;
#X obj 57 124 t b b;
#X obj 57 15 r \$0bs6;
#X obj 174 301 r \$0-volSliderOut6;
#X obj 134 17 r \$0-soundFileName6;
#X connect 0 0 4 0;
#X connect 0 1 5 0;
#X connect 1 0 0 0;
#X connect 2 0 1 0;
#X connect 3 0 0 0;
#X connect 4 0 6 0;
#X connect 5 0 7 0;
#X connect 8 0 3 0;
#X connect 8 1 2 0;
#X connect 9 0 8 0;
#X connect 10 0 5 1;
#X connect 10 0 4 1;
#X connect 11 0 2 1;
#X restore 279 54 pd sfReader6;
#N canvas 1316 441 351 468 sfReader7 0;
#X obj 101 261 readsf~ 2;
#X msg 101 204 open \$1;
#X obj 101 173 symbol;
#X msg 57 204 start;
#X obj 101 354 *~;
#X obj 159 353 *~;
#X obj 101 404 outlet~;
#X obj 159 404 outlet~;
#X obj 57 124 t b b;
#X obj 58 15 r \$0bs7;
#X obj 174 302 r \$0-volSliderOut7;
#X obj 134 17 r \$0-soundFileName7;
#X connect 0 0 4 0;
#X connect 0 1 5 0;
#X connect 1 0 0 0;
#X connect 2 0 1 0;
#X connect 3 0 0 0;
#X connect 4 0 6 0;
#X connect 5 0 7 0;
#X connect 8 0 3 0;
#X connect 8 1 2 0;
#X connect 9 0 8 0;
#X connect 10 0 5 1;
#X connect 10 0 4 1;
#X connect 11 0 2 1;
#X restore 360 54 pd sfReader7;
#N canvas 1316 441 351 468 sfReader8 0;
#X obj 101 261 readsf~ 2;
#X msg 101 204 open \$1;
#X obj 101 173 symbol;
#X msg 57 204 start;
#X obj 101 354 *~;
#X obj 159 353 *~;
#X obj 101 404 outlet~;
#X obj 159 404 outlet~;
#X obj 57 124 t b b;
#X obj 58 15 r \$0bs8;
#X obj 174 302 r \$0-volSliderOut8;
#X obj 134 17 r \$0-soundFileName8;
#X connect 0 0 4 0;
#X connect 0 1 5 0;
#X connect 1 0 0 0;
#X connect 2 0 1 0;
#X connect 3 0 0 0;
#X connect 4 0 6 0;
#X connect 5 0 7 0;
#X connect 8 0 3 0;
#X connect 8 1 2 0;
#X connect 9 0 8 0;
#X connect 10 0 5 1;
#X connect 10 0 4 1;
#X connect 11 0 2 1;
#X restore 441 54 pd sfReader8;
#N canvas 1316 441 351 468 sfReader9 0;
#X obj 101 261 readsf~ 2;
#X msg 101 204 open \$1;
#X obj 101 173 symbol;
#X msg 57 204 start;
#X obj 101 354 *~;
#X obj 159 353 *~;
#X obj 101 404 outlet~;
#X obj 159 404 outlet~;
#X obj 57 124 t b b;
#X obj 57 15 r \$0bs9;
#X obj 174 302 r \$0-volSliderOut9;
#X obj 134 17 r \$0-soundFileName9;
#X connect 0 0 4 0;
#X connect 0 1 5 0;
#X connect 1 0 0 0;
#X connect 2 0 1 0;
#X connect 3 0 0 0;
#X connect 4 0 6 0;
#X connect 5 0 7 0;
#X connect 8 0 3 0;
#X connect 8 1 2 0;
#X connect 9 0 8 0;
#X connect 10 0 5 1;
#X connect 10 0 4 1;
#X connect 11 0 2 1;
#X restore -97 79 pd sfReader9;
#N canvas 1316 441 351 468 sfReader10 0;
#X obj 101 261 readsf~ 2;
#X msg 101 204 open \$1;
#X obj 101 173 symbol;
#X msg 57 204 start;
#X obj 101 354 *~;
#X obj 159 353 *~;
#X obj 101 404 outlet~;
#X obj 159 404 outlet~;
#X obj 57 124 t b b;
#X obj 57 15 r \$0bs10;
#X obj 134 17 r \$0-soundFileName10;
#X obj 175 302 r \$0-volSliderOut10;
#X connect 0 0 4 0;
#X connect 0 1 5 0;
#X connect 1 0 0 0;
#X connect 2 0 1 0;
#X connect 3 0 0 0;
#X connect 4 0 6 0;
#X connect 5 0 7 0;
#X connect 8 0 3 0;
#X connect 8 1 2 0;
#X connect 9 0 8 0;
#X connect 10 0 2 1;
#X connect 11 0 5 1;
#X connect 11 0 4 1;
#X restore -17 79 pd sfReader10;
#N canvas 1316 441 351 468 sfReader11 0;
#X obj 101 261 readsf~ 2;
#X msg 101 204 open \$1;
#X obj 101 173 symbol;
#X msg 57 204 start;
#X obj 101 354 *~;
#X obj 159 353 *~;
#X obj 101 404 outlet~;
#X obj 159 404 outlet~;
#X obj 57 124 t b b;
#X obj 57 15 r \$0bs11;
#X obj 174 302 r \$0-volSliderOut11;
#X obj 134 17 r \$0-soundFileName11;
#X connect 0 0 4 0;
#X connect 0 1 5 0;
#X connect 1 0 0 0;
#X connect 2 0 1 0;
#X connect 3 0 0 0;
#X connect 4 0 6 0;
#X connect 5 0 7 0;
#X connect 8 0 3 0;
#X connect 8 1 2 0;
#X connect 9 0 8 0;
#X connect 10 0 5 1;
#X connect 10 0 4 1;
#X connect 11 0 2 1;
#X restore 68 79 pd sfReader11;
#N canvas 1376 469 351 468 sfReader12 0;
#X obj 101 261 readsf~ 2;
#X msg 101 204 open \$1;
#X obj 101 173 symbol;
#X msg 57 204 start;
#X obj 101 354 *~;
#X obj 159 353 *~;
#X obj 101 404 outlet~;
#X obj 159 404 outlet~;
#X obj 57 124 t b b;
#X obj 57 15 r \$0bs12;
#X obj 174 302 r \$0-volSliderOut12;
#X obj 134 17 r \$0-soundFileName12;
#X connect 0 0 4 0;
#X connect 0 1 5 0;
#X connect 1 0 0 0;
#X connect 2 0 1 0;
#X connect 3 0 0 0;
#X connect 4 0 6 0;
#X connect 5 0 7 0;
#X connect 8 0 3 0;
#X connect 8 1 2 0;
#X connect 9 0 8 0;
#X connect 10 0 5 1;
#X connect 10 0 4 1;
#X connect 11 0 2 1;
#X restore 153 79 pd sfReader12;
#N canvas 1316 441 351 468 sfReader13 0;
#X obj 101 261 readsf~ 2;
#X msg 101 204 open \$1;
#X obj 101 173 symbol;
#X msg 57 204 start;
#X obj 101 354 *~;
#X obj 159 353 *~;
#X obj 101 404 outlet~;
#X obj 159 404 outlet~;
#X obj 57 124 t b b;
#X obj 58 15 r \$0bs13;
#X obj 174 302 r \$0-volSliderOut13;
#X obj 134 17 r \$0-soundFileName13;
#X connect 0 0 4 0;
#X connect 0 1 5 0;
#X connect 1 0 0 0;
#X connect 2 0 1 0;
#X connect 3 0 0 0;
#X connect 4 0 6 0;
#X connect 5 0 7 0;
#X connect 8 0 3 0;
#X connect 8 1 2 0;
#X connect 9 0 8 0;
#X connect 10 0 5 1;
#X connect 10 0 4 1;
#X connect 11 0 2 1;
#X restore 241 77 pd sfReader13;
#N canvas 1316 441 351 468 sfReader14 0;
#X obj 101 261 readsf~ 2;
#X msg 101 204 open \$1;
#X obj 101 173 symbol;
#X msg 57 204 start;
#X obj 101 354 *~;
#X obj 159 353 *~;
#X obj 101 404 outlet~;
#X obj 159 404 outlet~;
#X obj 57 124 t b b;
#X obj 57 15 r \$0bs14;
#X obj 174 302 r \$0-volSliderOut14;
#X obj 134 17 r \$0-soundFileName14;
#X connect 0 0 4 0;
#X connect 0 1 5 0;
#X connect 1 0 0 0;
#X connect 2 0 1 0;
#X connect 3 0 0 0;
#X connect 4 0 6 0;
#X connect 5 0 7 0;
#X connect 8 0 3 0;
#X connect 8 1 2 0;
#X connect 9 0 8 0;
#X connect 10 0 5 1;
#X connect 10 0 4 1;
#X connect 11 0 2 1;
#X restore 329 77 pd sfReader14;
#N canvas 1316 441 351 468 sfReader15 0;
#X obj 101 261 readsf~ 2;
#X msg 101 204 open \$1;
#X obj 101 173 symbol;
#X msg 57 204 start;
#X obj 101 354 *~;
#X obj 159 353 *~;
#X obj 101 404 outlet~;
#X obj 159 404 outlet~;
#X obj 57 124 t b b;
#X obj 57 14 r \$0bs15;
#X obj 174 302 r \$0-volSliderOut15;
#X obj 134 17 r \$0-soundFileName15;
#X connect 0 0 4 0;
#X connect 0 1 5 0;
#X connect 1 0 0 0;
#X connect 2 0 1 0;
#X connect 3 0 0 0;
#X connect 4 0 6 0;
#X connect 5 0 7 0;
#X connect 8 0 3 0;
#X connect 8 1 2 0;
#X connect 9 0 8 0;
#X connect 10 0 5 1;
#X connect 10 0 4 1;
#X connect 11 0 2 1;
#X restore 416 77 pd sfReader15;
#N canvas 1316 441 351 468 sfReader16 0;
#X obj 101 261 readsf~ 2;
#X msg 101 204 open \$1;
#X obj 101 173 symbol;
#X msg 57 204 start;
#X obj 101 354 *~;
#X obj 159 353 *~;
#X obj 101 404 outlet~;
#X obj 159 404 outlet~;
#X obj 57 124 t b b;
#X obj 57 15 r \$0bs16;
#X obj 173 303 r \$0-volSliderOut16;
#X obj 134 17 r \$0-soundFileName16;
#X connect 0 0 4 0;
#X connect 0 1 5 0;
#X connect 1 0 0 0;
#X connect 2 0 1 0;
#X connect 3 0 0 0;
#X connect 4 0 6 0;
#X connect 5 0 7 0;
#X connect 8 0 3 0;
#X connect 8 1 2 0;
#X connect 9 0 8 0;
#X connect 10 0 5 1;
#X connect 10 0 4 1;
#X connect 11 0 2 1;
#X restore 503 77 pd sfReader16;
#X obj 186 317 throw~ bombs;
#X obj 186 285 *~ 1;
#X obj 238 256 r \$0-volSliderOutM;
#X connect 0 0 17 0;
#X connect 1 0 17 0;
#X connect 2 0 17 0;
#X connect 3 0 17 0;
#X connect 4 0 17 0;
#X connect 5 0 17 0;
#X connect 6 0 17 0;
#X connect 7 0 17 0;
#X connect 8 0 17 0;
#X connect 9 0 17 0;
#X connect 10 0 17 0;
#X connect 11 0 17 0;
#X connect 12 0 17 0;
#X connect 13 0 17 0;
#X connect 14 0 17 0;
#X connect 15 0 17 0;
#X connect 17 0 16 0;
#X connect 18 0 17 1;
#X restore 569 184 pd soundFileBank;
#N canvas 1189 812 311 220 fileLoader 0;
#X obj 45 35 unpack s f;
#X obj 45 7 inlet;
#X obj 45 169 s;
#X msg 102 125 symbol \$1-soundFileName\$2;
#X obj 102 97 pack \$0 f;
#X obj 102 68 t b f;
#X obj 119 36 print File Loaded to SoundBank;
#X connect 0 0 2 0;
#X connect 0 1 5 0;
#X connect 1 0 0 0;
#X connect 1 0 6 0;
#X connect 3 0 2 1;
#X connect 4 0 3 0;
#X connect 5 0 4 0;
#X connect 5 1 4 1;
#X restore 569 158 pd fileLoader;
#X obj 569 123 inlet;
#X text 453 157 [filename slot# (;
#X obj 337 123 inlet;
#X obj 337 259 s;
#X obj 337 179 pack \$0 f;
#X obj 337 150 t b f;
#X msg 337 207 symbol \$1bs\$2;
#X obj 337 234 t b s;
#N canvas 617 112 482 282 nanoPad 0;
#X obj 29 105 s \$0br1;
#X obj 48 126 s \$0br2;
#X obj 68 153 s \$0br3;
#X obj 88 174 s \$0br4;
#X obj 108 105 s \$0br5;
#X obj 128 126 s \$0br6;
#X obj 148 153 s \$0br7;
#X obj 168 175 s \$0br8;
#X obj 201 105 s \$0br9;
#X obj 220 129 s \$0br10;
#X obj 240 153 s \$0br11;
#X obj 260 177 s \$0br12;
#X obj 280 105 s \$0br13;
#X obj 300 129 s \$0br14;
#X obj 320 153 s \$0br15;
#X obj 340 177 s \$0br16;
#X obj 108 46 nanoPad2 4;
#X connect 16 0 0 0;
#X connect 16 1 1 0;
#X connect 16 2 2 0;
#X connect 16 3 3 0;
#X connect 16 4 4 0;
#X connect 16 5 5 0;
#X connect 16 6 6 0;
#X connect 16 7 7 0;
#X connect 16 8 8 0;
#X connect 16 9 9 0;
#X connect 16 10 10 0;
#X connect 16 11 11 0;
#X connect 16 12 12 0;
#X connect 16 13 13 0;
#X connect 16 14 14 0;
#X connect 16 15 15 0;
#X restore 746 230 pd nanoPad;
#X obj 250 122 vsl 15 79 0 1 0 0 \$0-volSliderOutM \$0-volSliderInM
M 5 8 0 10 -216960 -1 -1 5300 1;
#X connect 34 0 33 0;
#X connect 37 0 38 0;
#X connect 38 0 40 0;
#X connect 39 0 40 1;
#X connect 40 0 42 0;
#X connect 46 0 45 0;
#X connect 48 0 51 0;
#X connect 50 0 52 0;
#X connect 51 0 50 0;
#X connect 51 1 50 1;
#X connect 52 0 53 0;
#X connect 53 0 49 0;
#X connect 53 1 49 1;
#X coords 0 -1 1 1 255 235 1 10 100;
