#N canvas 850 185 666 770 10;
#X text 112 440 1;
#X text 112 455 2;
#X text 112 470 3;
#X text 112 485 4;
#X text 112 500 5;
#X text 112 515 6;
#X text 112 530 7;
#X text 112 545 8;
#X text 112 559 9;
#X text 108 574 10;
#X text 108 589 11;
#X text 108 604 12;
#X text 109 619 13;
#X text 109 634 14;
#X text 109 650 15;
#X text 109 664 16;
#X obj 125 440 vradio 15 1 0 16 empty empty empty 0 -8 0 10 -262144
-1 -1 0;
#X obj 121 736 outlet;
#X obj 78 49 inlet;
#X obj 78 163 f;
#X obj 104 163 + 1;
#X msg 105 135 0;
#X obj 78 91 t b b;
#X floatatom 100 257 5 0 0 0 - - -;
#X obj 78 215 mod 4;
#X obj 152 129 f \$1;
#X obj 152 42 loadbang;
#X obj 78 285 sel 0 1 2 3 4 5 6 7 8 9 10 11 12 13 14 15;
#X obj 190 128 inlet;
#X obj 140 440 vradio 15 1 0 16 empty empty empty 0 -8 0 10 -262144
-1 -1 0;
#X obj 155 440 vradio 15 1 0 16 empty empty empty 0 -8 0 10 -262144
-1 -1 0;
#X obj 170 440 vradio 15 1 0 16 empty empty empty 0 -8 0 10 -262144
-1 -1 0;
#X obj 185 440 vradio 15 1 0 16 empty empty empty 0 -8 0 10 -262144
-1 -1 0;
#X obj 200 440 vradio 15 1 0 16 empty empty empty 0 -8 0 10 -262144
-1 -1 0;
#X obj 215 440 vradio 15 1 0 16 empty empty empty 0 -8 0 10 -262144
-1 -1 0;
#X obj 230 440 vradio 15 1 0 16 empty empty empty 0 -8 0 10 -262144
-1 -1 0;
#X obj 245 440 vradio 15 1 0 16 empty empty empty 0 -8 0 10 -262144
-1 -1 0;
#X obj 260 440 vradio 15 1 0 16 empty empty empty 0 -8 0 10 -262144
-1 -1 0;
#X obj 275 440 vradio 15 1 0 16 empty empty empty 0 -8 0 10 -262144
-1 -1 0;
#X obj 290 440 vradio 15 1 0 16 empty empty empty 0 -8 0 10 -262144
-1 -1 0;
#X obj 305 440 vradio 15 1 0 16 empty empty empty 0 -8 0 10 -262144
-1 -1 0;
#X obj 320 440 vradio 15 1 0 16 empty empty empty 0 -8 0 10 -262144
-1 -1 0;
#X obj 335 440 vradio 15 1 0 16 empty empty empty 0 -8 0 10 -262144
-1 -1 0;
#X obj 350 440 vradio 15 1 0 16 empty empty empty 0 -8 0 10 -262144
-1 -1 0;
#X obj 125 426 tgl 15 0 \$0ts1 \$0tr1 1 5 8 0 10 -262144 -1 -1 1 1
;
#X obj 140 426 tgl 15 0 \$0ts2 \$0tr2 2 5 8 0 10 -262144 -1 -1 1 1
;
#X obj 155 426 tgl 15 0 \$0ts3 \$0tr3 3 5 8 0 10 -262144 -1 -1 1 1
;
#X obj 170 426 tgl 15 0 \$0ts4 \$0tr4 4 5 8 0 10 -262144 -1 -1 1 1
;
#X obj 185 426 tgl 15 0 \$0ts5 \$0tr5 5 5 8 0 10 -262144 -1 -1 1 1
;
#X obj 200 426 tgl 15 0 \$0ts6 \$0tr6 6 5 8 0 10 -262144 -1 -1 1 1
;
#X obj 215 426 tgl 15 0 \$0ts7 \$0tr7 7 5 8 0 10 -262144 -1 -1 1 1
;
#X obj 230 426 tgl 15 0 \$0ts8 \$0tr8 8 5 8 0 10 -262144 -1 -1 1 1
;
#X obj 245 426 tgl 15 0 \$0ts9 \$0tr9 9 5 8 0 10 -262144 -1 -1 1 1
;
#X obj 260 426 tgl 15 0 \$0ts10 \$0tr10 10 2 8 0 10 -262144 -1 -1 1
1;
#X obj 275 426 tgl 15 0 \$0ts11 \$0tr11 11 2 8 0 10 -262144 -1 -1 1
1;
#X obj 290 426 tgl 15 0 \$0ts12 \$0tr12 12 2 8 0 10 -262144 -1 -1 1
1;
#X obj 305 426 tgl 15 0 \$0ts13 \$0tr13 13 2 8 0 10 -262144 -1 -1 1
1;
#X obj 320 426 tgl 15 0 \$0ts14 \$0tr14 14 2 8 0 10 -262144 -1 -1 1
1;
#X obj 335 426 tgl 15 0 \$0ts15 \$0tr15 15 2 8 0 10 -262144 -1 -1 1
1;
#X obj 350 426 tgl 15 0 \$0ts16 \$0tr16 16 2 8 0 10 -262144 -1 -1 1
1;
#N canvas 328 73 1366 265 spigots____________________________ 0;
#X obj 43 169 spigot;
#X obj 43 195 outlet;
#X obj 43 43 inlet;
#X obj 126 170 spigot;
#X obj 126 196 outlet;
#X obj 203 166 spigot;
#X obj 203 192 outlet;
#X obj 285 171 spigot;
#X obj 285 197 outlet;
#X obj 370 170 spigot;
#X obj 370 196 outlet;
#X obj 453 168 spigot;
#X obj 453 194 outlet;
#X obj 530 168 spigot;
#X obj 530 194 outlet;
#X obj 612 168 spigot;
#X obj 612 194 outlet;
#X obj 680 172 spigot;
#X obj 680 198 outlet;
#X obj 763 172 spigot;
#X obj 763 198 outlet;
#X obj 840 172 spigot;
#X obj 840 198 outlet;
#X obj 922 171 spigot;
#X obj 922 197 outlet;
#X obj 997 176 spigot;
#X obj 997 201 outlet;
#X obj 1080 169 spigot;
#X obj 1080 195 outlet;
#X obj 1157 173 spigot;
#X obj 1157 199 outlet;
#X obj 1252 171 spigot;
#X obj 1252 197 outlet;
#X obj 61 96 r \$0ts1;
#X obj 137 101 r \$0ts2;
#X obj 216 100 r \$0ts3;
#X obj 300 98 r \$0ts4;
#X obj 387 94 r \$0ts5;
#X obj 473 96 r \$0ts6;
#X obj 550 98 r \$0ts7;
#X obj 622 98 r \$0ts8;
#X obj 695 91 r \$0ts9;
#X obj 773 95 r \$0ts10;
#X obj 855 101 r \$0ts11;
#X obj 936 94 r \$0ts12;
#X obj 1018 92 r \$0ts13;
#X obj 1090 87 r \$0ts14;
#X obj 1171 90 r \$0ts15;
#X obj 1266 84 r \$0ts16;
#X obj 43 68 + 1;
#X obj 126 32 inlet;
#X obj 126 73 + 1;
#X obj 203 31 inlet;
#X obj 203 75 + 1;
#X obj 285 30 inlet;
#X obj 285 74 + 1;
#X obj 370 25 inlet;
#X obj 370 69 + 1;
#X obj 453 29 inlet;
#X obj 453 73 + 1;
#X obj 530 32 inlet;
#X obj 530 76 + 1;
#X obj 612 31 inlet;
#X obj 612 75 + 1;
#X obj 680 22 inlet;
#X obj 680 66 + 1;
#X obj 763 26 inlet;
#X obj 763 70 + 1;
#X obj 840 29 inlet;
#X obj 840 73 + 1;
#X obj 922 28 inlet;
#X obj 922 72 + 1;
#X obj 997 15 inlet;
#X obj 997 59 + 1;
#X obj 1080 19 inlet;
#X obj 1080 63 + 1;
#X obj 1157 22 inlet;
#X obj 1157 66 + 1;
#X obj 1252 22 inlet;
#X obj 1252 49 + 1;
#X obj 61 122 * -1;
#X obj 61 144 + 1;
#X obj 137 124 * -1;
#X obj 137 146 + 1;
#X obj 216 121 * -1;
#X obj 216 143 + 1;
#X obj 300 121 * -1;
#X obj 300 143 + 1;
#X obj 388 118 * -1;
#X obj 388 140 + 1;
#X obj 473 118 * -1;
#X obj 473 140 + 1;
#X obj 550 119 * -1;
#X obj 550 141 + 1;
#X obj 622 118 * -1;
#X obj 622 140 + 1;
#X obj 696 115 * -1;
#X obj 696 137 + 1;
#X obj 773 119 * -1;
#X obj 773 141 + 1;
#X obj 855 124 * -1;
#X obj 855 146 + 1;
#X obj 936 115 * -1;
#X obj 936 137 + 1;
#X obj 1018 118 * -1;
#X obj 1018 140 + 1;
#X obj 1090 112 * -1;
#X obj 1090 134 + 1;
#X obj 1171 114 * -1;
#X obj 1171 136 + 1;
#X obj 1266 106 * -1;
#X obj 1266 128 + 1;
#X connect 0 0 1 0;
#X connect 2 0 49 0;
#X connect 3 0 4 0;
#X connect 5 0 6 0;
#X connect 7 0 8 0;
#X connect 9 0 10 0;
#X connect 11 0 12 0;
#X connect 13 0 14 0;
#X connect 15 0 16 0;
#X connect 17 0 18 0;
#X connect 19 0 20 0;
#X connect 21 0 22 0;
#X connect 23 0 24 0;
#X connect 25 0 26 0;
#X connect 27 0 28 0;
#X connect 29 0 30 0;
#X connect 31 0 32 0;
#X connect 33 0 80 0;
#X connect 34 0 82 0;
#X connect 35 0 84 0;
#X connect 36 0 86 0;
#X connect 37 0 88 0;
#X connect 38 0 90 0;
#X connect 39 0 92 0;
#X connect 40 0 94 0;
#X connect 41 0 96 0;
#X connect 42 0 98 0;
#X connect 43 0 100 0;
#X connect 44 0 102 0;
#X connect 45 0 104 0;
#X connect 46 0 106 0;
#X connect 47 0 108 0;
#X connect 48 0 110 0;
#X connect 49 0 0 0;
#X connect 50 0 51 0;
#X connect 51 0 3 0;
#X connect 52 0 53 0;
#X connect 53 0 5 0;
#X connect 54 0 55 0;
#X connect 55 0 7 0;
#X connect 56 0 57 0;
#X connect 57 0 9 0;
#X connect 58 0 59 0;
#X connect 59 0 11 0;
#X connect 60 0 61 0;
#X connect 61 0 13 0;
#X connect 62 0 63 0;
#X connect 63 0 15 0;
#X connect 64 0 65 0;
#X connect 65 0 17 0;
#X connect 66 0 67 0;
#X connect 67 0 19 0;
#X connect 68 0 69 0;
#X connect 69 0 21 0;
#X connect 70 0 71 0;
#X connect 71 0 23 0;
#X connect 72 0 73 0;
#X connect 73 0 25 0;
#X connect 74 0 75 0;
#X connect 75 0 27 0;
#X connect 76 0 77 0;
#X connect 77 0 29 0;
#X connect 78 0 79 0;
#X connect 79 0 31 0;
#X connect 80 0 81 0;
#X connect 81 0 0 1;
#X connect 82 0 83 0;
#X connect 83 0 3 1;
#X connect 84 0 85 0;
#X connect 85 0 5 1;
#X connect 86 0 87 0;
#X connect 87 0 7 1;
#X connect 88 0 89 0;
#X connect 89 0 9 1;
#X connect 90 0 91 0;
#X connect 91 0 11 1;
#X connect 92 0 93 0;
#X connect 93 0 13 1;
#X connect 94 0 95 0;
#X connect 95 0 15 1;
#X connect 96 0 97 0;
#X connect 97 0 17 1;
#X connect 98 0 99 0;
#X connect 99 0 19 1;
#X connect 100 0 101 0;
#X connect 101 0 21 1;
#X connect 102 0 103 0;
#X connect 103 0 23 1;
#X connect 104 0 105 0;
#X connect 105 0 25 1;
#X connect 106 0 107 0;
#X connect 107 0 27 1;
#X connect 108 0 109 0;
#X connect 109 0 29 1;
#X connect 110 0 111 0;
#X connect 111 0 31 1;
#X restore 125 688 pd spigots____________________________;
#X text 103 425 OFF;
#X connect 16 0 60 0;
#X connect 18 0 22 0;
#X connect 19 0 24 0;
#X connect 20 0 19 1;
#X connect 21 0 19 1;
#X connect 22 0 19 0;
#X connect 24 0 20 0;
#X connect 24 0 23 0;
#X connect 24 0 27 0;
#X connect 25 0 24 1;
#X connect 26 0 25 0;
#X connect 27 0 16 0;
#X connect 27 1 29 0;
#X connect 27 2 30 0;
#X connect 27 3 31 0;
#X connect 27 4 32 0;
#X connect 27 5 33 0;
#X connect 27 6 34 0;
#X connect 27 7 35 0;
#X connect 27 8 36 0;
#X connect 27 9 37 0;
#X connect 27 10 38 0;
#X connect 27 11 39 0;
#X connect 27 12 40 0;
#X connect 27 13 41 0;
#X connect 27 14 42 0;
#X connect 27 15 43 0;
#X connect 28 0 24 1;
#X connect 29 0 60 1;
#X connect 30 0 60 2;
#X connect 31 0 60 3;
#X connect 32 0 60 4;
#X connect 33 0 60 5;
#X connect 34 0 60 6;
#X connect 35 0 60 7;
#X connect 36 0 60 8;
#X connect 37 0 60 9;
#X connect 38 0 60 10;
#X connect 39 0 60 11;
#X connect 40 0 60 12;
#X connect 41 0 60 13;
#X connect 42 0 60 14;
#X connect 43 0 60 15;
#X connect 60 0 17 0;
#X connect 60 1 17 0;
#X connect 60 2 17 0;
#X connect 60 3 17 0;
#X connect 60 4 17 0;
#X connect 60 5 17 0;
#X connect 60 6 17 0;
#X connect 60 7 17 0;
#X connect 60 8 17 0;
#X connect 60 9 17 0;
#X connect 60 10 17 0;
#X connect 60 11 17 0;
#X connect 60 12 17 0;
#X connect 60 13 17 0;
#X connect 60 14 17 0;
#X connect 60 15 17 0;
#X coords 0 -1 1 1 265 280 1 100 400;
