#N canvas 52 210 1009 576 10;
#X obj 481 273 openpanel;
#X obj 53 483 outlet~;
#X obj 637 284 loadbang;
#X obj 637 307 f \$0;
#X obj 642 11 inlet;
#X text 640 -5 change_speed/pitch 0=no_change;
#X obj 94 70 bng 15 250 50 0 \$0-load_button empty LOAD 17 7 0 10 -262144
-1 -1;
#X obj 349 70 tgl 15 0 \$0-on_off empty ON/OFF 17 7 0 10 -262144 -1
-1 0 1;
#X floatatom 190 227 10 0 0 1 LOOP #0-loop_length -;
#X floatatom 190 212 10 0 0 1 START #0-start_pos -;
#X floatatom 637 330 5 0 0 0 - - -;
#X obj 621 402 f;
#X obj 136 70 bng 15 250 50 0 \$0-norm empty NORM 17 7 0 10 -262144
-1 -1;
#X obj 123 -3 inlet;
#X obj 286 4 inlet;
#X obj 417 5 inlet;
#X msg 621 423 \; \$1-array normalize \;;
#N canvas 778 22 475 641 tablegui 0;
#X obj 69 63 inlet;
#X obj 246 183 arraysize \$0-array;
#X obj 76 269 until;
#X obj 75 342 f;
#X obj 81 139 t b b b;
#X msg 117 303 0;
#X obj 75 247 f;
#X obj 75 374 t f f;
#X obj 58 452 tabread \$0-array;
#X obj 247 212 / 100;
#X obj 90 223 / 100;
#X obj 176 429 / 100;
#X obj 106 341 + 100;
#X obj 167 59 inlet;
#X text 213 62 set definition;
#X obj 60 562 tabwrite \$0-gui;
#X obj 311 252 f \$0;
#X obj 253 286 pack \$1 \$2;
#X obj 310 226 loadbang;
#X msg 252 358 \; \$2-gui resize \$1;
#X connect 0 0 4 0;
#X connect 1 0 9 0;
#X connect 1 0 10 0;
#X connect 2 0 3 0;
#X connect 3 0 7 0;
#X connect 3 0 12 0;
#X connect 4 0 6 0;
#X connect 4 1 1 0;
#X connect 4 2 5 0;
#X connect 5 0 3 1;
#X connect 6 0 2 0;
#X connect 7 0 8 0;
#X connect 7 1 11 0;
#X connect 8 0 15 0;
#X connect 9 0 17 0;
#X connect 10 0 6 1;
#X connect 11 0 15 1;
#X connect 12 0 3 1;
#X connect 13 0 9 1;
#X connect 13 0 10 1;
#X connect 13 0 12 1;
#X connect 13 0 11 1;
#X connect 16 0 17 1;
#X connect 17 0 19 0;
#X connect 18 0 16 0;
#X restore 481 444 pd tablegui;
#N canvas 0 22 450 278 (subpatch) 0;
#X array \$0-gui 2333 float 0;
#X coords 0 1 2332 -1 400 50 2 0 0;
#X restore 50 85 graph;
#X obj 487 377 t b b;
#X obj 179 5 inlet;
#X obj 551 377 t b f;
#X msg 551 355 \$1;
#X text 578 356 sample every \$1th sample of table (default 100);
#N canvas 83 564 381 480 ola 0;
#X obj 27 168 bng 15 250 50 0 empty empty play 17 7 0 10 -262144 -1
-1;
#X obj 27 128 metro 200;
#X obj 63 199 delay;
#X obj 90 176 * 0.5;
#X obj 27 74 inlet;
#X obj 83 74 inlet;
#X obj 171 74 inlet;
#X obj 215 75 inlet;
#X obj 94 347 +~;
#X obj 94 371 outlet~;
#X obj 13 253 s \$0-init_time;
#N canvas 44 22 541 655 cbliplay 0;
#X obj 55 216 pack f f;
#X obj 55 74 t b b;
#X obj 70 257 vline~;
#X obj 172 216 pack f 0;
#X obj 171 150 float;
#X obj 55 189 +;
#X obj 198 100 * 44.1;
#X floatatom 351 100 5 0 0 2 pitch_divisor - -;
#X obj 351 148 * 10000;
#X obj 69 382 clip~ 2 440998;
#X obj 222 370 cos~;
#X obj 223 394 *~ -0.5;
#X obj 223 415 +~ 0.5;
#X obj 69 548 *~;
#X obj 222 335 vline~;
#X msg 282 310 0 0;
#X obj 222 309 pack 1 f;
#X obj 55 54 inlet;
#X obj 198 56 inlet;
#X obj 351 60 inlet;
#X obj 69 600 outlet~;
#X obj 267 59 inlet;
#X text 186 38 start_pos;
#X text 258 43 loop_length;
#X text 55 35 toggle_off/on;
#X obj 55 160 float;
#X obj 150 354 - 2;
#X obj 82 138 r \$0-samplesize;
#X obj 390 99 r \$0-rectime;
#X obj 69 415 tabread4~ \$0-array;
#X obj 390 121 t b f;
#X connect 0 0 2 0;
#X connect 1 0 16 0;
#X connect 1 0 25 0;
#X connect 1 1 4 0;
#X connect 1 1 15 0;
#X connect 2 0 9 0;
#X connect 3 0 2 0;
#X connect 4 0 3 0;
#X connect 4 0 5 1;
#X connect 5 0 0 0;
#X connect 6 0 4 1;
#X connect 7 0 8 0;
#X connect 8 0 0 1;
#X connect 9 0 29 0;
#X connect 10 0 11 0;
#X connect 11 0 12 0;
#X connect 12 0 13 1;
#X connect 13 0 20 0;
#X connect 14 0 10 0;
#X connect 15 0 14 0;
#X connect 16 0 14 0;
#X connect 17 0 1 0;
#X connect 18 0 6 0;
#X connect 19 0 7 0;
#X connect 21 0 16 1;
#X connect 25 0 5 0;
#X connect 26 0 9 2;
#X connect 27 0 25 1;
#X connect 27 0 26 0;
#X connect 28 0 30 0;
#X connect 29 0 13 0;
#X connect 30 0 8 0;
#X connect 30 1 8 1;
#X restore 95 286 pd cbliplay;
#N canvas 44 22 718 657 cbliplay 0;
#X obj 55 216 pack f f;
#X obj 55 74 t b b;
#X obj 70 257 vline~;
#X obj 172 216 pack f 0;
#X obj 171 150 float;
#X obj 55 189 +;
#X obj 198 100 * 44.1;
#X floatatom 351 100 5 0 0 2 pitch_divisor - -;
#X obj 351 145 * 10000;
#X obj 69 382 clip~ 2 440998;
#X obj 222 370 cos~;
#X obj 223 394 *~ -0.5;
#X obj 223 415 +~ 0.5;
#X obj 69 548 *~;
#X obj 222 335 vline~;
#X msg 282 310 0 0;
#X obj 222 309 pack 1 f;
#X obj 55 54 inlet;
#X obj 198 56 inlet;
#X obj 351 60 inlet;
#X obj 69 600 outlet~;
#X obj 267 59 inlet;
#X text 186 38 start_pos;
#X text 258 43 loop_length;
#X text 55 35 toggle_off/on;
#X obj 55 160 float;
#X obj 150 354 - 2;
#X obj 82 138 r \$0-samplesize;
#X obj 390 99 r \$0-rectime;
#X obj 69 415 tabread4~ \$0-array;
#X obj 389 121 t b f;
#X connect 0 0 2 0;
#X connect 1 0 16 0;
#X connect 1 0 25 0;
#X connect 1 1 4 0;
#X connect 1 1 15 0;
#X connect 2 0 9 0;
#X connect 3 0 2 0;
#X connect 4 0 3 0;
#X connect 4 0 5 1;
#X connect 5 0 0 0;
#X connect 6 0 4 1;
#X connect 7 0 8 0;
#X connect 8 0 0 1;
#X connect 9 0 29 0;
#X connect 10 0 11 0;
#X connect 11 0 12 0;
#X connect 12 0 13 1;
#X connect 13 0 20 0;
#X connect 14 0 10 0;
#X connect 15 0 14 0;
#X connect 16 0 14 0;
#X connect 17 0 1 0;
#X connect 18 0 6 0;
#X connect 19 0 7 0;
#X connect 21 0 16 1;
#X connect 25 0 5 0;
#X connect 26 0 9 2;
#X connect 27 0 25 1;
#X connect 27 0 26 0;
#X connect 28 0 30 0;
#X connect 29 0 13 0;
#X connect 30 0 8 0;
#X connect 30 1 8 1;
#X restore 214 285 pd cbliplay;
#X connect 0 0 2 0;
#X connect 0 0 10 0;
#X connect 0 0 11 0;
#X connect 1 0 0 0;
#X connect 2 0 12 0;
#X connect 3 0 2 1;
#X connect 4 0 1 0;
#X connect 5 0 1 1;
#X connect 5 0 3 0;
#X connect 5 0 11 2;
#X connect 5 0 12 2;
#X connect 6 0 11 1;
#X connect 6 0 12 1;
#X connect 7 0 11 3;
#X connect 7 0 12 3;
#X connect 8 0 9 0;
#X connect 11 0 8 0;
#X connect 12 0 8 1;
#X restore 53 350 pd ola;
#X obj 54 -2 inlet;
#X msg 106 403 \$1 50;
#N canvas 351 40 180 296 pitch_shift 0;
#X obj 36 36 inlet;
#X obj 38 235 outlet;
#X obj 39 147 mtof;
#X floatatom 39 127 5 0 0 0 - - -;
#X floatatom 39 170 5 0 0 0 - - -;
#X obj 39 81 loadbang;
#X obj 97 138 mtof;
#X floatatom 97 116 5 0 0 2 pitch - -;
#X floatatom 94 161 5 0 0 0 - - -;
#X obj 38 201 /;
#X obj 92 179 t b f;
#X msg 39 104 60;
#X obj 97 81 + 60;
#X connect 0 0 12 0;
#X connect 2 0 4 0;
#X connect 3 0 2 0;
#X connect 4 0 9 0;
#X connect 5 0 11 0;
#X connect 6 0 8 0;
#X connect 7 0 6 0;
#X connect 8 0 10 0;
#X connect 9 0 1 0;
#X connect 10 0 9 0;
#X connect 10 1 9 1;
#X connect 11 0 3 0;
#X connect 11 0 7 0;
#X connect 12 0 7 0;
#X restore 642 34 pd pitch_shift;
#X obj 471 2 inlet;
#X text 469 -11 vol;
#X text 415 -13 loop;
#X text 283 -14 start;
#X text 120 -20 ON/OFF;
#X text 52 -20 file #;
#X obj 642 57 s \$0-pitch_shift;
#X obj 86 328 r \$0-pitch_shift;
#X obj 53 260 r \$0-on_off;
#X obj 106 382 r \$0-vol;
#X obj 54 22 s \$0-file;
#X obj 556 273 r \$0-file;
#X obj 487 355 r \$0-norm;
#X obj 75 305 r \$0-start_pos;
#N canvas 192 323 500 303 startPos 0;
#X floatatom 85 219 10 0 0 2 start - -;
#X obj 85 139 * 10000;
#X obj 85 162 pack f 60;
#X obj 85 185 line;
#X obj 85 66 r \$0-rectime;
#X obj 85 98 t b f;
#X obj 166 107 print length;
#X obj 165 175 print;
#X msg 165 153 \$1 sec;
#X obj 166 128 / 1000;
#X obj 85 242 s \$0-start_pos;
#X text 141 12 receive start time as ratio of whole recording to be
\; multiplied for actual start position;
#X obj 28 19 r \$0-start_slider;
#X connect 0 0 10 0;
#X connect 1 0 2 0;
#X connect 2 0 3 0;
#X connect 3 0 0 0;
#X connect 4 0 5 0;
#X connect 4 0 6 0;
#X connect 4 0 9 0;
#X connect 5 0 1 0;
#X connect 5 1 1 1;
#X connect 8 0 7 0;
#X connect 9 0 8 0;
#X connect 12 0 1 0;
#X restore 228 260 pd startPos;
#X obj 64 281 r \$0-loop_length;
#N canvas 712 112 437 366 loopLength 0;
#X obj 59 222 * 1;
#X obj 74 193 t b f;
#X obj 59 254 s \$0-loop_length;
#X obj 74 172 r \$0-rectime;
#X obj 74 70 r \$0-start_slider;
#X obj 59 125 -;
#X obj 74 95 t b f;
#X text 135 101 compute loop length: end - start;
#X obj 59 43 r \$0-end_slider;
#X connect 0 0 2 0;
#X connect 1 0 0 0;
#X connect 1 1 0 1;
#X connect 3 0 1 0;
#X connect 4 0 6 0;
#X connect 5 0 0 0;
#X connect 6 0 5 0;
#X connect 6 1 5 1;
#X connect 8 0 5 0;
#X restore 229 285 pd loopLength;
#X obj 481 250 r \$0-load_button;
#N canvas 1416 23 458 655 table_load 0;
#X msg 124 370 open \$1 \, 1;
#X obj 91 113 inlet;
#X obj 311 53 block~ 1024 1 64;
#X obj 124 423 readsf~ 1;
#X obj 124 340 t a b;
#X obj 126 556 table \$0-array;
#X obj 255 510 print \$0-array-loaded;
#X obj 124 510 tabwrite~ \$0-array;
#X obj 90 228 soundfile_info;
#X obj 90 263 unpack f s f;
#X obj 254 392 pack f f;
#X obj 254 368 f \$0;
#X obj 254 336 t b f;
#X msg 253 414 \; \$1-array resize \$2;
#X obj 221 288 s \$0-samplesize;
#X obj 289 598 outlet;
#X msg 90 196 read \$1;
#X obj 192 112 inlet;
#X obj 210 246 print size;
#X obj 32 365 /;
#X obj 32 312 t b f;
#X obj 32 339 f;
#X obj 32 417 s \$0-rectime;
#X obj 32 390 * 1000;
#X obj 192 135 pack s;
#X text 13 17 threaded file loading via block~ and \; readsf~ for mid-performance
loading;
#X connect 0 0 3 0;
#X connect 1 0 16 0;
#X connect 3 0 7 0;
#X connect 3 1 6 0;
#X connect 3 1 15 0;
#X connect 4 0 0 0;
#X connect 4 1 7 0;
#X connect 8 0 9 0;
#X connect 9 0 20 0;
#X connect 9 1 4 0;
#X connect 9 2 12 0;
#X connect 9 2 14 0;
#X connect 9 2 18 0;
#X connect 9 2 21 1;
#X connect 10 0 13 0;
#X connect 11 0 10 0;
#X connect 12 0 11 0;
#X connect 12 1 10 1;
#X connect 16 0 8 0;
#X connect 17 0 24 0;
#X connect 19 0 23 0;
#X connect 20 0 21 0;
#X connect 20 1 19 1;
#X connect 21 0 19 0;
#X connect 23 0 22 0;
#X connect 24 0 16 0;
#X restore 481 300 pd table_load;
#X obj 163 482 outlet;
#X obj 163 458 r \$0-on_off;
#X obj 286 25 s \$0-start_sliderIN;
#X obj 417 29 s \$0-loop_slider;
#N canvas 585 39 584 655 autoScratch 0;
#X obj 31 588 s \$0-start_sliderIN;
#X obj 33 15 inlet;
#X obj 32 96 metro 500;
#X obj 32 123 random 100;
#X msg 199 549 0.02;
#X obj 32 304 line;
#X obj 176 174 r \$0-start_slider;
#X msg 33 232 \$1 \$2;
#X obj 33 200 pack;
#X obj 32 327 / 100;
#X msg 166 40 500;
#X obj 166 17 loadbang;
#X obj 332 91 s \$0-autoScratchBegIN;
#X obj 47 363 r \$0-autoScratchEndOUT;
#X obj 59 391 r \$0-autoScratchBegOUT;
#X obj 116 251 f;
#X msg 116 276 set \$1;
#X obj 32 54 t f b f;
#X obj 118 179 sel 1;
#X obj 176 201 * 100;
#X obj 176 224 int;
#X obj 31 478 *;
#X obj 47 441 -;
#X obj 59 416 t b f;
#X obj 31 505 +;
#X obj 239 45 r \$0-autoScratchSpeed;
#X obj 184 592 s \$0-loop_sliderIN;
#X obj 31 529 t f f;
#X obj 184 571 +;
#X connect 1 0 17 0;
#X connect 2 0 3 0;
#X connect 3 0 8 0;
#X connect 4 0 28 1;
#X connect 5 0 9 0;
#X connect 6 0 19 0;
#X connect 7 0 5 0;
#X connect 8 0 7 0;
#X connect 9 0 21 0;
#X connect 10 0 2 1;
#X connect 10 0 8 1;
#X connect 11 0 10 0;
#X connect 13 0 22 0;
#X connect 14 0 23 0;
#X connect 14 0 24 1;
#X connect 15 0 16 0;
#X connect 16 0 5 0;
#X connect 17 0 2 0;
#X connect 17 1 4 0;
#X connect 17 2 18 0;
#X connect 18 0 15 0;
#X connect 19 0 20 0;
#X connect 20 0 15 1;
#X connect 21 0 24 0;
#X connect 22 0 21 1;
#X connect 23 0 22 0;
#X connect 23 1 22 1;
#X connect 24 0 27 0;
#X connect 25 0 2 1;
#X connect 25 0 8 1;
#X connect 27 0 0 0;
#X connect 27 1 28 0;
#X connect 28 0 26 0;
#X restore 585 91 pd autoScratch;
#X obj 263 494 outlet;
#X obj 263 456 r \$0-EQ-hip;
#X obj 343 496 outlet;
#X obj 343 458 r \$0-EQ-lop;
#X obj 435 70 tgl 15 0 empty empty empty 17 7 0 10 -262144 -1 -1 0
1;
#X obj 789 110 s \$0-autoScratchEndIN;
#X obj 789 69 loadbang;
#X msg 789 90 1;
#X floatatom 418 179 5 0 0 0 - - #0-autoScratchSpeed;
#X obj 544 4 loadbang;
#X msg 544 26 500;
#X obj 106 425 line~;
#X obj 85 447 *~;
#X obj 50 149 hrslider.mmb 400 15;
#X obj 50 135 hrslider.mmb 400 15;
#N canvas 190 161 989 349 sends_receives 0;
#X msg 57 178 receive \$1-autoScratchBegIN \$1-autoScratchEndIN;
#X obj 46 154 \$0;
#X msg 46 207 send \$1-autoScratchBegOUT \$1-autoScratchEndOUT;
#X obj 48 34 loadbang;
#X obj 46 281 outlet;
#X msg 94 149 setminmax 0 1;
#X obj 116 31 inlet;
#X obj 48 86 t b b b b;
#X obj 399 139 \$0;
#X obj 400 240 outlet;
#X msg 439 136 setminmax 0 1;
#X text 177 69 auto scratch;
#X text 472 87 start & length;
#X msg 400 195 send \$1-start_slider \$1-end_slider;
#X msg 412 167 receive \$1-start_sliderIN \$1-loop_sliderIN;
#X obj 506 251 print;
#X msg 72 241 fgcolor 0 255 0;
#X msg 397 109 fgcolor 0 255 0;
#X connect 0 0 4 0;
#X connect 1 0 0 0;
#X connect 1 0 2 0;
#X connect 2 0 4 0;
#X connect 3 0 7 0;
#X connect 5 0 4 0;
#X connect 6 0 7 0;
#X connect 7 0 1 0;
#X connect 7 1 5 0;
#X connect 7 1 16 0;
#X connect 7 2 8 0;
#X connect 7 3 10 0;
#X connect 7 3 17 0;
#X connect 8 0 14 0;
#X connect 8 0 13 0;
#X connect 10 0 9 0;
#X connect 13 0 9 0;
#X connect 13 0 15 0;
#X connect 14 0 9 0;
#X connect 16 0 4 0;
#X connect 17 0 9 0;
#X restore 26 226 pd sends_receives;
#X obj 26 205 bng 15 250 50 0 empty empty empty 17 7 0 10 -262144 -1
-1;
#X obj 589 132 r \$0-set_end_slider;
#X text 53 147 autoScratchZone;
#X text 52 133 loop_locater;
#X text 169 -13 autoScratchToggle;
#X obj 54 164 hsl 194 15 0 100 0 0 empty empty auto_scratch_grain_size
5 8 0 10 -262144 -1 -1 0 1;
#X obj 254 164 hsl 194 15 0 4000 0 0 empty empty auto_scratch_speed
5 8 0 10 -262144 -1 -1 2600 1;
#X floatatom 206 183 5 0 0 0 - - -;
#X connect 0 0 46 0;
#X connect 2 0 3 0;
#X connect 3 0 10 0;
#X connect 4 0 27 0;
#X connect 10 0 11 1;
#X connect 11 0 16 0;
#X connect 13 0 7 0;
#X connect 14 0 49 0;
#X connect 15 0 50 0;
#X connect 19 0 17 0;
#X connect 19 1 11 0;
#X connect 20 0 56 0;
#X connect 21 0 17 0;
#X connect 21 1 17 1;
#X connect 22 0 21 0;
#X connect 24 0 1 0;
#X connect 25 0 38 0;
#X connect 26 0 63 0;
#X connect 27 0 34 0;
#X connect 35 0 24 3;
#X connect 36 0 24 0;
#X connect 37 0 26 0;
#X connect 39 0 46 1;
#X connect 40 0 19 0;
#X connect 41 0 24 2;
#X connect 43 0 24 1;
#X connect 45 0 0 0;
#X connect 46 0 17 0;
#X connect 48 0 47 0;
#X connect 53 0 52 0;
#X connect 55 0 54 0;
#X connect 56 0 51 0;
#X connect 58 0 59 0;
#X connect 59 0 57 0;
#X connect 61 0 62 0;
#X connect 62 0 74 0;
#X connect 63 0 64 1;
#X connect 64 0 1 0;
#X connect 67 0 65 0;
#X connect 67 1 66 0;
#X connect 68 0 67 0;
#X connect 69 0 66 1;
#X connect 74 0 60 0;
#X coords 0 -1 1 1 400 155 1 50 50;
