#N canvas 854 456 984 494 10;
#X obj 282 37 notein;
#X obj 282 63 stripnote;
#X obj 282 90 s \$0-nanoNote;
#X obj 29 129 r \$0-nanoNote;
#X obj 29 172 sel 37 39 41 43 45 47 49 51;
#X obj 28 227 r \$0-nanoNote;
#X obj 28 269 sel 36 38 40 42 44 46 48 50;
#X obj 258 129 r \$0-nanoNote;
#X obj 258 228 r \$0-nanoNote;
#X obj 257 172 sel 53 55 57 59 61 63 65 67;
#X obj 258 273 sel 52 54 56 58 60 62 64 66;
#X obj 160 100 hradio 15 1 0 4 \$0-scene empty Scene -30 8 0 10 -262144
-1 -1 0;
#N canvas 1314 22 217 268 scene1 0;
#X obj 46 180 spigot;
#X obj 80 103 r \$0-scene;
#X obj 80 127 sel 0;
#X obj 47 66 inlet;
#X obj 46 204 outlet;
#X msg 80 152 1;
#X msg 113 152 0;
#X obj 35 111 tgl 15 0 empty empty empty 17 7 0 10 -262144 -1 -1 0
1;
#X connect 0 0 4 0;
#X connect 1 0 2 0;
#X connect 2 0 5 0;
#X connect 2 1 6 0;
#X connect 3 0 0 0;
#X connect 3 0 7 0;
#X connect 5 0 0 1;
#X connect 6 0 0 1;
#X restore 29 151 pd scene1;
#N canvas 1314 22 217 268 scene1 0;
#X obj 46 180 spigot;
#X obj 80 103 r \$0-scene;
#X obj 80 127 sel 0;
#X obj 47 66 inlet;
#X obj 46 204 outlet;
#X msg 80 152 1;
#X msg 113 152 0;
#X connect 0 0 4 0;
#X connect 1 0 2 0;
#X connect 2 0 5 0;
#X connect 2 1 6 0;
#X connect 3 0 0 0;
#X connect 5 0 0 1;
#X connect 6 0 0 1;
#X restore 28 248 pd scene1;
#X obj 47 411 outlet;
#X obj 91 411 outlet;
#X obj 135 410 outlet;
#X obj 178 410 outlet;
#X obj 263 410 outlet;
#X obj 306 410 outlet;
#X obj 352 410 outlet;
#X obj 220 410 outlet;
#N canvas 334 584 450 300 outlets1-8---------- 0;
#X obj 17 20 inlet;
#X obj 56 20 inlet;
#X obj 96 21 inlet;
#X obj 135 21 inlet;
#X obj 174 23 inlet;
#X obj 212 23 inlet;
#X obj 249 22 inlet;
#X obj 292 23 inlet;
#X obj 17 45 s \$0-out1;
#X obj 291 131 s \$0-out8;
#X obj 248 104 s \$0-out7;
#X obj 213 78 s \$0-out6;
#X obj 174 56 s \$0-out5;
#X obj 133 124 s \$0-out4;
#X obj 93 97 s \$0-out3;
#X obj 56 74 s \$0-out2;
#X connect 0 0 8 0;
#X connect 1 0 15 0;
#X connect 2 0 14 0;
#X connect 3 0 13 0;
#X connect 4 0 12 0;
#X connect 5 0 11 0;
#X connect 6 0 10 0;
#X connect 7 0 9 0;
#X restore 29 193 pd outlets1-8----------;
#N canvas 334 584 424 198 outlets1-8---------- 0;
#X obj 17 20 inlet;
#X obj 56 20 inlet;
#X obj 96 21 inlet;
#X obj 135 21 inlet;
#X obj 174 23 inlet;
#X obj 212 23 inlet;
#X obj 249 22 inlet;
#X obj 292 23 inlet;
#X obj 17 45 s \$0-out1;
#X obj 291 131 s \$0-out8;
#X obj 248 104 s \$0-out7;
#X obj 213 78 s \$0-out6;
#X obj 174 56 s \$0-out5;
#X obj 133 124 s \$0-out4;
#X obj 93 97 s \$0-out3;
#X obj 56 74 s \$0-out2;
#X connect 0 0 8 0;
#X connect 1 0 15 0;
#X connect 2 0 14 0;
#X connect 3 0 13 0;
#X connect 4 0 12 0;
#X connect 5 0 11 0;
#X connect 6 0 10 0;
#X connect 7 0 9 0;
#X restore 257 192 pd outlets1-8----------;
#N canvas 1360 716 453 244 rOutlets1-8------------------------------------
0;
#X obj 17 45 r \$0-out1;
#X obj 63 73 r \$0-out2;
#X obj 108 94 r \$0-out3;
#X obj 159 121 r \$0-out4;
#X obj 206 45 r \$0-out5;
#X obj 252 73 r \$0-out6;
#X obj 298 94 r \$0-out7;
#X obj 347 121 r \$0-out8;
#X obj 16 197 outlet;
#X obj 63 197 outlet;
#X obj 110 197 outlet;
#X obj 160 197 outlet;
#X obj 205 197 outlet;
#X obj 250 197 outlet;
#X obj 298 197 outlet;
#X obj 347 197 outlet;
#X connect 0 0 8 0;
#X connect 1 0 9 0;
#X connect 2 0 10 0;
#X connect 3 0 11 0;
#X connect 4 0 12 0;
#X connect 5 0 13 0;
#X connect 6 0 14 0;
#X connect 7 0 15 0;
#X restore 48 365 pd rOutlets1-8------------------------------------
;
#X obj 413 409 outlet;
#X obj 457 409 outlet;
#X obj 501 408 outlet;
#X obj 544 408 outlet;
#X obj 629 408 outlet;
#X obj 672 408 outlet;
#X obj 718 408 outlet;
#X obj 586 408 outlet;
#N canvas 1360 716 453 244 rOutlets9-16------------------------------------
0;
#X obj 16 197 outlet;
#X obj 63 197 outlet;
#X obj 110 197 outlet;
#X obj 160 197 outlet;
#X obj 205 197 outlet;
#X obj 250 197 outlet;
#X obj 298 197 outlet;
#X obj 347 197 outlet;
#X obj 17 45 r \$0-out9;
#X obj 63 73 r \$0-out10;
#X obj 108 94 r \$0-out11;
#X obj 159 121 r \$0-out12;
#X obj 206 45 r \$0-out13;
#X obj 252 72 r \$0-out14;
#X obj 298 94 r \$0-out15;
#X obj 347 121 r \$0-out16;
#X connect 8 0 0 0;
#X connect 9 0 1 0;
#X connect 10 0 2 0;
#X connect 11 0 3 0;
#X connect 12 0 4 0;
#X connect 13 0 5 0;
#X connect 14 0 6 0;
#X connect 15 0 7 0;
#X restore 414 363 pd rOutlets9-16------------------------------------
;
#N canvas 334 584 409 187 outlets9-16---------- 0;
#X obj 17 20 inlet;
#X obj 56 20 inlet;
#X obj 96 21 inlet;
#X obj 135 21 inlet;
#X obj 174 23 inlet;
#X obj 212 23 inlet;
#X obj 249 22 inlet;
#X obj 292 23 inlet;
#X obj 17 45 s \$0-out9;
#X obj 56 74 s \$0-out10;
#X obj 93 97 s \$0-out11;
#X obj 133 125 s \$0-out12;
#X obj 175 56 s \$0-out13;
#X obj 213 78 s \$0-out14;
#X obj 248 104 s \$0-out15;
#X obj 291 131 s \$0-out16;
#X connect 0 0 8 0;
#X connect 1 0 9 0;
#X connect 2 0 10 0;
#X connect 3 0 11 0;
#X connect 4 0 12 0;
#X connect 5 0 13 0;
#X connect 6 0 14 0;
#X connect 7 0 15 0;
#X restore 28 292 pd outlets9-16----------;
#N canvas 1314 22 217 268 scene2 0;
#X obj 46 180 spigot;
#X obj 80 103 r \$0-scene;
#X obj 47 66 inlet;
#X obj 46 204 outlet;
#X msg 80 152 1;
#X msg 113 152 0;
#X obj 80 127 sel 1;
#X connect 0 0 3 0;
#X connect 1 0 6 0;
#X connect 2 0 0 0;
#X connect 4 0 0 1;
#X connect 5 0 0 1;
#X connect 6 0 4 0;
#X connect 6 1 5 0;
#X restore 258 249 pd scene2;
#N canvas 1314 22 217 268 scene2 0;
#X obj 46 180 spigot;
#X obj 80 103 r \$0-scene;
#X obj 47 66 inlet;
#X obj 46 204 outlet;
#X msg 80 152 1;
#X msg 113 152 0;
#X obj 80 127 sel 1;
#X connect 0 0 3 0;
#X connect 1 0 6 0;
#X connect 2 0 0 0;
#X connect 4 0 0 1;
#X connect 5 0 0 1;
#X connect 6 0 4 0;
#X connect 6 1 5 0;
#X restore 256 150 pd scene2;
#N canvas 334 584 409 187 outlets9-16---------- 0;
#X obj 17 20 inlet;
#X obj 56 20 inlet;
#X obj 96 21 inlet;
#X obj 135 21 inlet;
#X obj 174 23 inlet;
#X obj 212 23 inlet;
#X obj 249 22 inlet;
#X obj 292 23 inlet;
#X obj 17 45 s \$0-out9;
#X obj 56 74 s \$0-out10;
#X obj 93 97 s \$0-out11;
#X obj 133 125 s \$0-out12;
#X obj 175 56 s \$0-out13;
#X obj 213 78 s \$0-out14;
#X obj 248 104 s \$0-out15;
#X obj 291 131 s \$0-out16;
#X connect 0 0 8 0;
#X connect 1 0 9 0;
#X connect 2 0 10 0;
#X connect 3 0 11 0;
#X connect 4 0 12 0;
#X connect 5 0 13 0;
#X connect 6 0 14 0;
#X connect 7 0 15 0;
#X restore 258 295 pd outlets9-16----------;
#X obj 446 134 r \$0-nanoNote;
#X obj 445 232 r \$0-nanoNote;
#X obj 675 134 r \$0-nanoNote;
#X obj 675 233 r \$0-nanoNote;
#N canvas 334 584 450 300 outlets1-8---------- 0;
#X obj 17 20 inlet;
#X obj 56 20 inlet;
#X obj 96 21 inlet;
#X obj 135 21 inlet;
#X obj 174 23 inlet;
#X obj 212 23 inlet;
#X obj 249 22 inlet;
#X obj 292 23 inlet;
#X obj 17 45 s \$0-out1;
#X obj 291 131 s \$0-out8;
#X obj 248 104 s \$0-out7;
#X obj 213 78 s \$0-out6;
#X obj 174 56 s \$0-out5;
#X obj 133 124 s \$0-out4;
#X obj 93 97 s \$0-out3;
#X obj 56 74 s \$0-out2;
#X connect 0 0 8 0;
#X connect 1 0 15 0;
#X connect 2 0 14 0;
#X connect 3 0 13 0;
#X connect 4 0 12 0;
#X connect 5 0 11 0;
#X connect 6 0 10 0;
#X connect 7 0 9 0;
#X restore 446 198 pd outlets1-8----------;
#N canvas 334 584 424 198 outlets1-8---------- 0;
#X obj 17 20 inlet;
#X obj 56 20 inlet;
#X obj 96 21 inlet;
#X obj 135 21 inlet;
#X obj 174 23 inlet;
#X obj 212 23 inlet;
#X obj 249 22 inlet;
#X obj 292 23 inlet;
#X obj 17 45 s \$0-out1;
#X obj 291 131 s \$0-out8;
#X obj 248 104 s \$0-out7;
#X obj 213 78 s \$0-out6;
#X obj 174 56 s \$0-out5;
#X obj 133 124 s \$0-out4;
#X obj 93 97 s \$0-out3;
#X obj 56 74 s \$0-out2;
#X connect 0 0 8 0;
#X connect 1 0 15 0;
#X connect 2 0 14 0;
#X connect 3 0 13 0;
#X connect 4 0 12 0;
#X connect 5 0 11 0;
#X connect 6 0 10 0;
#X connect 7 0 9 0;
#X restore 674 197 pd outlets1-8----------;
#N canvas 334 584 409 187 outlets9-16---------- 0;
#X obj 17 20 inlet;
#X obj 56 20 inlet;
#X obj 96 21 inlet;
#X obj 135 21 inlet;
#X obj 174 23 inlet;
#X obj 212 23 inlet;
#X obj 249 22 inlet;
#X obj 292 23 inlet;
#X obj 17 45 s \$0-out9;
#X obj 56 74 s \$0-out10;
#X obj 93 97 s \$0-out11;
#X obj 133 125 s \$0-out12;
#X obj 175 56 s \$0-out13;
#X obj 213 78 s \$0-out14;
#X obj 248 104 s \$0-out15;
#X obj 291 131 s \$0-out16;
#X connect 0 0 8 0;
#X connect 1 0 9 0;
#X connect 2 0 10 0;
#X connect 3 0 11 0;
#X connect 4 0 12 0;
#X connect 5 0 13 0;
#X connect 6 0 14 0;
#X connect 7 0 15 0;
#X restore 445 297 pd outlets9-16----------;
#N canvas 334 584 409 187 outlets9-16---------- 0;
#X obj 17 20 inlet;
#X obj 56 20 inlet;
#X obj 96 21 inlet;
#X obj 135 21 inlet;
#X obj 174 23 inlet;
#X obj 212 23 inlet;
#X obj 249 22 inlet;
#X obj 292 23 inlet;
#X obj 17 45 s \$0-out9;
#X obj 56 74 s \$0-out10;
#X obj 93 97 s \$0-out11;
#X obj 133 125 s \$0-out12;
#X obj 175 56 s \$0-out13;
#X obj 213 78 s \$0-out14;
#X obj 248 104 s \$0-out15;
#X obj 291 131 s \$0-out16;
#X connect 0 0 8 0;
#X connect 1 0 9 0;
#X connect 2 0 10 0;
#X connect 3 0 11 0;
#X connect 4 0 12 0;
#X connect 5 0 13 0;
#X connect 6 0 14 0;
#X connect 7 0 15 0;
#X restore 675 300 pd outlets9-16----------;
#N canvas 1314 22 217 268 scene3 0;
#X obj 46 180 spigot;
#X obj 80 103 r \$0-scene;
#X obj 47 66 inlet;
#X obj 46 204 outlet;
#X msg 80 152 1;
#X msg 113 152 0;
#X obj 80 127 sel 2;
#X connect 0 0 3 0;
#X connect 1 0 6 0;
#X connect 2 0 0 0;
#X connect 4 0 0 1;
#X connect 5 0 0 1;
#X connect 6 0 4 0;
#X connect 6 1 5 0;
#X restore 446 156 pd scene3;
#N canvas 1314 22 217 268 scene3 0;
#X obj 46 180 spigot;
#X obj 80 103 r \$0-scene;
#X obj 47 66 inlet;
#X obj 46 204 outlet;
#X msg 80 152 1;
#X msg 113 152 0;
#X obj 80 127 sel 2;
#X connect 0 0 3 0;
#X connect 1 0 6 0;
#X connect 2 0 0 0;
#X connect 4 0 0 1;
#X connect 5 0 0 1;
#X connect 6 0 4 0;
#X connect 6 1 5 0;
#X restore 445 253 pd scene3;
#N canvas 1314 22 217 268 scene4 0;
#X obj 46 180 spigot;
#X obj 80 103 r \$0-scene;
#X obj 47 66 inlet;
#X obj 46 204 outlet;
#X msg 80 152 1;
#X msg 113 152 0;
#X obj 81 127 sel 3;
#X connect 0 0 3 0;
#X connect 1 0 6 0;
#X connect 2 0 0 0;
#X connect 4 0 0 1;
#X connect 5 0 0 1;
#X connect 6 0 4 0;
#X connect 6 1 5 0;
#X restore 673 155 pd scene4;
#N canvas 1314 22 217 268 scene4 0;
#X obj 46 180 spigot;
#X obj 80 103 r \$0-scene;
#X obj 47 66 inlet;
#X obj 46 204 outlet;
#X msg 80 152 1;
#X msg 113 152 0;
#X obj 80 127 sel 3;
#X connect 0 0 3 0;
#X connect 1 0 6 0;
#X connect 2 0 0 0;
#X connect 4 0 0 1;
#X connect 5 0 0 1;
#X connect 6 0 4 0;
#X connect 6 1 5 0;
#X restore 675 254 pd scene4;
#X obj 446 177 sel 69 71 73 75 77 79 81 83;
#X obj 445 274 sel 68 70 72 74 76 78 80 82;
#X obj 674 177 sel 85 87 89 91 93 95 97 99;
#X obj 675 278 sel 84 86 88 90 92 94 96 98;
#X text 105 33 scene #;
#X obj 160 78 - 1;
#X obj 160 55 f \$1;
#X obj 160 34 loadbang;
#X obj 109 54 inlet;
#X connect 0 0 1 0;
#X connect 0 1 1 1;
#X connect 1 0 2 0;
#X connect 3 0 12 0;
#X connect 4 0 22 0;
#X connect 4 1 22 1;
#X connect 4 2 22 2;
#X connect 4 3 22 3;
#X connect 4 4 22 4;
#X connect 4 5 22 5;
#X connect 4 6 22 6;
#X connect 4 7 22 7;
#X connect 5 0 13 0;
#X connect 6 0 34 0;
#X connect 6 1 34 1;
#X connect 6 2 34 2;
#X connect 6 3 34 3;
#X connect 6 4 34 4;
#X connect 6 5 34 5;
#X connect 6 6 34 6;
#X connect 6 7 34 7;
#X connect 7 0 36 0;
#X connect 8 0 35 0;
#X connect 9 0 23 0;
#X connect 9 1 23 1;
#X connect 9 2 23 2;
#X connect 9 3 23 3;
#X connect 9 4 23 4;
#X connect 9 5 23 5;
#X connect 9 6 23 6;
#X connect 9 7 23 7;
#X connect 10 0 37 0;
#X connect 10 1 37 1;
#X connect 10 2 37 2;
#X connect 10 3 37 3;
#X connect 10 4 37 4;
#X connect 10 5 37 5;
#X connect 10 6 37 6;
#X connect 10 7 37 7;
#X connect 12 0 4 0;
#X connect 13 0 6 0;
#X connect 24 0 14 0;
#X connect 24 1 15 0;
#X connect 24 2 16 0;
#X connect 24 3 17 0;
#X connect 24 4 21 0;
#X connect 24 5 18 0;
#X connect 24 6 19 0;
#X connect 24 7 20 0;
#X connect 33 0 25 0;
#X connect 33 1 26 0;
#X connect 33 2 27 0;
#X connect 33 3 28 0;
#X connect 33 4 32 0;
#X connect 33 5 29 0;
#X connect 33 6 30 0;
#X connect 33 7 31 0;
#X connect 35 0 10 0;
#X connect 36 0 9 0;
#X connect 38 0 46 0;
#X connect 39 0 47 0;
#X connect 40 0 48 0;
#X connect 41 0 49 0;
#X connect 46 0 50 0;
#X connect 47 0 51 0;
#X connect 48 0 52 0;
#X connect 49 0 53 0;
#X connect 50 0 42 0;
#X connect 50 1 42 1;
#X connect 50 2 42 2;
#X connect 50 3 42 3;
#X connect 50 4 42 4;
#X connect 50 5 42 5;
#X connect 50 6 42 6;
#X connect 50 7 42 7;
#X connect 51 0 44 0;
#X connect 51 1 44 1;
#X connect 51 2 44 2;
#X connect 51 3 44 3;
#X connect 51 4 44 4;
#X connect 51 5 44 5;
#X connect 51 6 44 6;
#X connect 51 7 44 7;
#X connect 52 0 43 0;
#X connect 52 1 43 1;
#X connect 52 2 43 2;
#X connect 52 3 43 3;
#X connect 52 4 43 4;
#X connect 52 5 43 5;
#X connect 52 6 43 6;
#X connect 52 7 43 7;
#X connect 53 0 45 0;
#X connect 53 1 45 1;
#X connect 53 2 45 2;
#X connect 53 3 45 3;
#X connect 53 4 45 4;
#X connect 53 5 45 5;
#X connect 53 6 45 6;
#X connect 53 7 45 7;
#X connect 55 0 11 0;
#X connect 56 0 55 0;
#X connect 57 0 56 0;
#X connect 58 0 55 0;
#X coords 0 -1 1 1 200 20 1 20 100;
