#N canvas 790 270 1042 702 10;
#X obj 201 306 * 10000;
#X obj 201 329 pack f 60;
#X obj 201 352 line;
#X obj 440 215 bng 15 250 50 0 empty empty empty 17 7 0 10 -262144
-1 -1;
#X obj 58 335 * 1;
#X obj 41 660 outlet~;
#X obj 240 283 r \$0-rectime;
#X obj 656 20 inlet;
#X text 654 4 change_speed/pitch 0=no_change;
#X obj 200 83 bng 15 250 50 0 \$0-open_bang empty Open 17 7 0 10 -262144
-1 -1;
#X obj 143 83 tgl 15 0 \$0-onoff_tog empty ON/OFF 17 7 0 10 -262144
-1 -1 0 1;
#X floatatom 148 216 10 0 0 1 Loop #0-loop_ms -;
#X floatatom 52 216 10 0 0 1 Start #0-start_ms -;
#X floatatom 345 216 10 0 0 1 total - -;
#X obj 244 83 bng 15 250 50 0 \$0-norm_bang empty Norm 17 7 0 10 -262144
-1 -1;
#X obj 55 155 hsl 400 15 0 1 0 0 \$0-start_sl empty Start 5 8 0 10
-262144 -1 -1 0 1;
#X obj 55 185 hsl 400 15 0 1 0 0 \$0-loop_sl empty Loop_Length 5 8
0 10 -262144 -1 -1 0 1;
#X obj 143 23 inlet;
#X obj 194 24 inlet;
#X obj 244 25 inlet;
#X obj 55 170 hsl 400 15 0 1 0 0 empty empty End 5 8 0 10 -162280 -262144
-262144 0 1;
#X msg 510 574 \; \$1-array normalize \;;
#N canvas 367 22 475 641 tablegui 0;
#X obj 69 63 inlet;
#X obj 246 183 arraysize \$0-array;
#X obj 76 269 until;
#X obj 75 342 f;
#X obj 81 139 t b b b;
#X msg 117 303 0;
#X obj 75 247 f;
#X obj 75 374 t f f;
#X obj 58 452 tabread \$0-array;
#X obj 247 212 / 100;
#X obj 90 223 / 100;
#X obj 176 429 / 100;
#X obj 106 341 + 100;
#X obj 167 59 inlet;
#X text 213 62 set definition;
#X obj 60 562 tabwrite \$0-gui;
#X obj 311 252 f \$0;
#X obj 253 286 pack \$1 \$2;
#X obj 310 226 loadbang;
#X msg 252 358 \; \$2-gui resize \$1;
#X connect 0 0 4 0;
#X connect 1 0 9 0;
#X connect 1 0 10 0;
#X connect 2 0 3 0;
#X connect 3 0 7 0;
#X connect 3 0 12 0;
#X connect 4 0 6 0;
#X connect 4 1 1 0;
#X connect 4 2 5 0;
#X connect 5 0 3 1;
#X connect 6 0 2 0;
#X connect 7 0 8 0;
#X connect 7 1 11 0;
#X connect 8 0 15 0;
#X connect 9 0 17 0;
#X connect 10 0 6 1;
#X connect 11 0 15 1;
#X connect 12 0 3 1;
#X connect 13 0 9 1;
#X connect 13 0 10 1;
#X connect 13 0 12 1;
#X connect 13 0 11 1;
#X connect 16 0 17 1;
#X connect 17 0 19 0;
#X connect 18 0 16 0;
#X restore 364 606 pd tablegui;
#N canvas 0 22 450 278 (subpatch) 0;
#X array \$0-gui 1 float 0;
#X coords 0 1 1 -1 400 50 2 0 0;
#X restore 55 102 graph;
#X obj 483 526 t b b;
#X obj 563 23 inlet;
#X obj 400 483 t b f;
#X msg 400 456 \$1;
#X text 427 457 sample every \$1th sample of table (default 100);
#N canvas 769 38 508 528 crossfade 0;
#X obj 27 168 bng 15 250 50 0 empty empty play 17 7 0 10 -262144 -1
-1;
#X obj 19 144 metro 200;
#X obj 69 213 delay;
#X obj 27 74 inlet;
#X obj 105 40 inlet;
#X obj 207 57 inlet;
#X obj 269 59 inlet;
#X obj 95 419 +~;
#X obj 95 443 outlet~;
#X obj 13 253 s \$0-init_time;
#X obj 345 52 inlet;
#X text 27 55 on/off;
#X text 103 25 loop;
#X text 204 36 start;
#X text 270 37 pitch;
#X text 344 35 fade;
#X obj 122 190 - 0;
#X obj 132 162 t b f;
#X obj 69 78 * 2;
#X obj 70 124 -;
#X obj 365 249 bng 15 250 50 0 empty empty empty 17 7 0 10 -262144
-1 -1;
#N canvas 42 22 541 655 cbliplay 0;
#X obj 44 205 pack f f;
#X obj 59 246 vline~;
#X obj 161 205 pack f 0;
#X obj 160 139 float;
#X obj 44 178 +;
#X obj 187 89 * 44.1;
#X floatatom 405 81 5 0 0 2 pitch_divisor - -;
#X obj 405 128 * 10000;
#X obj 58 371 clip~ 2 440998;
#X obj 44 23 inlet;
#X obj 187 45 inlet;
#X obj 405 41 inlet;
#X obj 58 589 outlet~;
#X text 175 27 start_pos;
#X text 44 4 toggle_off/on;
#X obj 44 149 float;
#X obj 139 343 - 2;
#X obj 71 105 r \$0-samplesize;
#X obj 444 80 r \$0-rectime;
#X obj 58 404 tabread4~ \$0-array;
#X obj 344 42 inlet;
#X obj 44 63 t b b;
#X obj 58 531 pan~;
#X obj 206 474 line;
#X obj 210 409 pack -45 f;
#X obj 272 41 inlet;
#X obj 370 418 delay;
#X obj 397 392 -;
#X obj 397 366 t b f;
#X obj 58 561 *~ 1;
#X obj 370 441 pack 45 f;
#X obj 443 103 t b f;
#X obj 207 291 f;
#X obj 235 291 + 1;
#X obj 207 313 sel 0;
#X msg 222 267 0;
#X obj 222 247 loadbang;
#X obj 234 337 t b b;
#X msg 207 361 -45 0;
#X msg 284 409 45 50;
#X obj 160 10 r \$0-stop;
#X connect 0 0 1 0;
#X connect 1 0 8 0;
#X connect 2 0 1 0;
#X connect 3 0 2 0;
#X connect 3 0 4 1;
#X connect 4 0 0 0;
#X connect 5 0 3 1;
#X connect 6 0 7 0;
#X connect 7 0 0 1;
#X connect 8 0 19 0;
#X connect 9 0 21 0;
#X connect 10 0 5 0;
#X connect 11 0 6 0;
#X connect 15 0 4 0;
#X connect 16 0 8 2;
#X connect 17 0 15 1;
#X connect 17 0 16 0;
#X connect 18 0 31 0;
#X connect 19 0 22 0;
#X connect 20 0 24 1;
#X connect 20 0 28 0;
#X connect 20 0 30 1;
#X connect 21 0 15 0;
#X connect 21 1 3 0;
#X connect 21 1 26 0;
#X connect 21 1 32 0;
#X connect 22 0 29 0;
#X connect 23 0 22 1;
#X connect 24 0 23 0;
#X connect 25 0 27 0;
#X connect 26 0 30 0;
#X connect 27 0 26 1;
#X connect 28 0 27 0;
#X connect 28 1 27 1;
#X connect 29 0 12 0;
#X connect 30 0 23 0;
#X connect 31 0 7 0;
#X connect 31 1 7 1;
#X connect 32 0 33 0;
#X connect 32 0 34 0;
#X connect 33 0 32 1;
#X connect 34 0 38 0;
#X connect 34 1 37 0;
#X connect 35 0 32 1;
#X connect 36 0 35 0;
#X connect 37 0 24 0;
#X connect 37 1 39 0;
#X connect 38 0 23 0;
#X connect 39 0 23 0;
#X connect 40 0 3 0;
#X connect 40 0 35 0;
#X restore 95 307 pd cbliplay;
#N canvas 617 22 541 655 cbliplay 0;
#X obj 44 205 pack f f;
#X obj 59 246 vline~;
#X obj 161 205 pack f 0;
#X obj 160 139 float;
#X obj 44 178 +;
#X obj 187 89 * 44.1;
#X floatatom 405 81 5 0 0 2 pitch_divisor - -;
#X obj 404 129 * 10000;
#X obj 58 371 clip~ 2 440998;
#X obj 44 43 inlet;
#X obj 187 45 inlet;
#X obj 405 41 inlet;
#X obj 58 589 outlet~;
#X text 175 27 start_pos;
#X text 44 24 toggle_off/on;
#X obj 44 149 float;
#X obj 139 343 - 2;
#X obj 70 109 r \$0-samplesize;
#X obj 444 80 r \$0-rectime;
#X obj 58 404 tabread4~ \$0-array;
#X obj 344 42 inlet;
#X obj 44 63 t b b;
#X obj 58 466 pan~;
#X msg 296 403 45 0;
#X obj 216 431 line;
#X obj 221 401 pack -45 f;
#X obj 272 41 inlet;
#X obj 357 356 delay;
#X obj 384 330 -;
#X obj 391 301 t b f;
#X obj 58 532 *~ 1;
#X obj 355 402 pack 45 f;
#X obj 444 102 t b f;
#X obj 224 114 r \$0-stop;
#X connect 0 0 1 0;
#X connect 1 0 8 0;
#X connect 2 0 1 0;
#X connect 3 0 2 0;
#X connect 3 0 4 1;
#X connect 4 0 0 0;
#X connect 5 0 3 1;
#X connect 6 0 7 0;
#X connect 7 0 0 1;
#X connect 8 0 19 0;
#X connect 9 0 21 0;
#X connect 10 0 5 0;
#X connect 11 0 6 0;
#X connect 15 0 4 0;
#X connect 16 0 8 2;
#X connect 17 0 15 1;
#X connect 17 0 16 0;
#X connect 18 0 32 0;
#X connect 19 0 22 0;
#X connect 20 0 25 1;
#X connect 20 0 29 0;
#X connect 20 0 31 1;
#X connect 21 0 15 0;
#X connect 21 0 25 0;
#X connect 21 1 3 0;
#X connect 21 1 23 0;
#X connect 21 1 27 0;
#X connect 22 0 30 0;
#X connect 23 0 24 0;
#X connect 24 0 22 1;
#X connect 25 0 24 0;
#X connect 26 0 28 0;
#X connect 27 0 31 0;
#X connect 28 0 27 1;
#X connect 29 0 28 0;
#X connect 29 1 28 1;
#X connect 30 0 12 0;
#X connect 31 0 24 0;
#X connect 32 0 7 0;
#X connect 32 1 7 1;
#X connect 33 0 3 0;
#X restore 241 307 pd cbliplay;
#X obj 96 77 * 2;
#X obj 97 101 t b f;
#X msg 69 192 stop;
#X obj 70 170 r \$0-stop;
#X connect 0 0 2 0;
#X connect 0 0 9 0;
#X connect 0 0 21 0;
#X connect 1 0 0 0;
#X connect 2 0 20 0;
#X connect 2 0 22 0;
#X connect 3 0 1 0;
#X connect 4 0 16 0;
#X connect 4 0 18 0;
#X connect 4 0 21 2;
#X connect 4 0 22 2;
#X connect 5 0 21 1;
#X connect 5 0 22 1;
#X connect 6 0 21 4;
#X connect 6 0 22 4;
#X connect 7 0 8 0;
#X connect 10 0 17 0;
#X connect 10 0 21 3;
#X connect 10 0 22 3;
#X connect 10 0 23 0;
#X connect 16 0 2 1;
#X connect 17 0 16 0;
#X connect 17 1 16 1;
#X connect 18 0 19 0;
#X connect 19 0 1 1;
#X connect 21 0 7 0;
#X connect 22 0 7 1;
#X connect 23 0 24 0;
#X connect 24 0 19 0;
#X connect 24 1 19 1;
#X connect 25 0 2 0;
#X connect 26 0 25 0;
#X restore 41 551 pd crossfade;
#X obj 55 200 hsl 400 15 0 1 0 0 \$0-fade_sl empty Fade_Amount 5 8
0 10 -262144 -1 -1 0 1;
#N canvas 198 22 190 288 pitchdiv 0;
#X obj 45 152 mtof;
#X floatatom 45 132 5 0 0 0 - - -;
#X floatatom 45 175 5 0 0 0 - - -;
#X obj 45 86 loadbang;
#X obj 103 143 mtof;
#X floatatom 103 121 5 0 0 2 pitch - -;
#X floatatom 100 166 5 0 0 0 - - -;
#X obj 44 206 /;
#X obj 98 184 t b f;
#X msg 45 109 60;
#X obj 103 86 + 60;
#X obj 102 56 inlet;
#X obj 45 247 outlet;
#X connect 0 0 2 0;
#X connect 1 0 0 0;
#X connect 2 0 7 0;
#X connect 3 0 9 0;
#X connect 4 0 6 0;
#X connect 5 0 4 0;
#X connect 6 0 8 0;
#X connect 7 0 12 0;
#X connect 8 0 7 0;
#X connect 8 1 7 1;
#X connect 9 0 1 0;
#X connect 9 0 5 0;
#X connect 10 0 5 0;
#X connect 11 0 10 0;
#X restore 92 528 pd pitchdiv;
#X obj 74 385 * 0.5;
#X obj 74 459 *;
#X obj 82 431 t b f;
#X obj 440 52 r \$0-init_time;
#X obj 41 638 *~ 1;
#X obj 363 284 sel 0;
#X obj 325 77 hsl 128 25 0 1 0 0 \$0-vol_sl empty VOLUME 4 8 0 10 -262144
-1 -1 12700 1;
#X obj 322 6 loadbang;
#X msg 322 28 1;
#X obj 140 605 line;
#X msg 140 583 \$1 50;
#X floatatom 242 216 10 0 0 1 Fade #0-fade_ms -;
#X obj 363 305 s \$0-stop;
#X obj 364 371 openpanel;
#N canvas 1412 154 458 655 table_load 0;
#X msg 124 370 open \$1 \, 1;
#X obj 91 113 inlet;
#X obj 311 53 block~ 1024 1 64;
#X obj 124 423 readsf~ 1;
#X obj 124 340 t a b;
#X obj 126 556 table \$0-array;
#X obj 255 510 print \$0-array-loaded;
#X obj 124 510 tabwrite~ \$0-array;
#X obj 90 228 soundfile_info;
#X obj 90 263 unpack f s f;
#X obj 254 392 pack f f;
#X obj 254 368 f \$0;
#X obj 254 336 t b f;
#X msg 253 414 \; \$1-array resize \$2;
#X obj 221 288 s \$0-samplesize;
#X obj 289 598 outlet;
#X msg 90 196 read \$1;
#X obj 194 113 inlet;
#X obj 210 246 print size;
#X obj 32 365 /;
#X obj 32 312 t b f;
#X obj 32 339 f;
#X obj 32 417 s \$0-rectime;
#X obj 32 390 * 1000;
#X obj 194 147 pack s;
#X connect 0 0 3 0;
#X connect 1 0 16 0;
#X connect 3 0 7 0;
#X connect 3 1 6 0;
#X connect 3 1 15 0;
#X connect 4 0 0 0;
#X connect 4 1 7 0;
#X connect 8 0 9 0;
#X connect 9 0 20 0;
#X connect 9 1 4 0;
#X connect 9 2 12 0;
#X connect 9 2 14 0;
#X connect 9 2 18 0;
#X connect 9 2 21 1;
#X connect 10 0 13 0;
#X connect 11 0 10 0;
#X connect 12 0 11 0;
#X connect 12 1 10 1;
#X connect 16 0 8 0;
#X connect 17 0 24 0;
#X connect 19 0 23 0;
#X connect 20 0 21 0;
#X connect 20 1 19 1;
#X connect 21 0 19 0;
#X connect 23 0 22 0;
#X connect 24 0 16 0;
#X restore 364 394 pd table_load;
#X obj 345 51 r \$0-rectime;
#X text 547 8 gui resolution;
#X obj -14 23 inlet;
#X obj -14 45 s \$0-filename;
#X obj 439 372 r \$0-filename;
#X obj 364 348 r \$0-open_bang;
#X obj 483 503 r \$0-norm_bang;
#X obj 656 42 s \$0-pitchdiv;
#X obj 92 507 r \$0-pitchdiv;
#X obj 563 44 s \$0-gui_res;
#X obj 401 434 r \$0-gui_res;
#X obj 510 553 f \$0;
#X obj 363 261 r \$0-onoff_tog;
#X obj 41 249 r \$0-onoff_tog;
#X obj 201 260 r \$0-start_sl;
#N canvas 507 675 159 185 end_sl 0;
#X obj 4 110 +;
#X obj -4 45 t b f;
#X obj 4 66 r \$0-start_sl;
#X obj -4 24 r \$0-loop_sl;
#X obj 4 134 outlet;
#X connect 0 0 4 0;
#X connect 1 0 0 0;
#X connect 1 1 0 1;
#X connect 2 0 0 0;
#X connect 3 0 1 0;
#X restore -20 86 pd end_sl;
#X obj 201 375 s \$0-start_ms;
#X obj 73 311 r \$0-rectime;
#X obj 82 409 r \$0-fade_sl;
#X obj 74 485 s \$0-fade_ms;
#X obj 77 361 s \$0-loop_ms;
#X obj 140 561 r \$0-vol_sl;
#X text 774 467 inlets \; 1 filename \; 2 on/off toggle \; 3 start
slider \; 4 loop_length slider \; 5 gui resolution \; 6 pitch \;;
#X obj 58 285 r \$0-loop_sl;
#X connect 0 0 1 0;
#X connect 1 0 2 0;
#X connect 2 0 63 0;
#X connect 2 0 29 2;
#X connect 4 0 67 0;
#X connect 4 0 32 0;
#X connect 4 0 29 1;
#X connect 6 0 0 1;
#X connect 7 0 54 0;
#X connect 17 0 10 0;
#X connect 18 0 15 0;
#X connect 19 0 16 0;
#X connect 24 0 22 0;
#X connect 24 1 58 0;
#X connect 25 0 56 0;
#X connect 26 0 22 0;
#X connect 26 1 22 1;
#X connect 27 0 26 0;
#X connect 29 0 36 0;
#X connect 31 0 29 3;
#X connect 32 0 33 0;
#X connect 33 0 29 4;
#X connect 33 0 66 0;
#X connect 34 0 33 0;
#X connect 34 1 33 1;
#X connect 35 0 3 0;
#X connect 36 0 5 0;
#X connect 37 0 44 0;
#X connect 39 0 40 0;
#X connect 40 0 38 0;
#X connect 41 0 36 1;
#X connect 42 0 41 0;
#X connect 45 0 46 0;
#X connect 46 0 22 0;
#X connect 47 0 13 0;
#X connect 49 0 50 0;
#X connect 51 0 46 1;
#X connect 52 0 45 0;
#X connect 53 0 24 0;
#X connect 55 0 31 0;
#X connect 57 0 27 0;
#X connect 58 0 21 0;
#X connect 59 0 37 0;
#X connect 60 0 29 0;
#X connect 61 0 0 0;
#X connect 62 0 20 0;
#X connect 64 0 4 1;
#X connect 65 0 34 0;
#X connect 68 0 42 0;
#X connect 70 0 4 0;
#X coords 0 -1 1 1 410 160 1 50 75;
