#N canvas 1210 242 659 747 10;
#X obj 21 713 outlet;
#X obj 24 307 t b b;
#X obj 24 516 sel 0 1 2 3 4 5 6 7 8 9 10 11 12 13 14 15;
#X obj 1 1 cnv 15 655 60 empty empty seqer 20 12 0 14 -184000 -66577
0;
#X obj 24 281 spigot;
#X floatatom 83 287 5 0 0 0 - - -;
#X obj 421 440 outlet;
#X text 470 434 send bang at beat after final \; beat (for triggering
\; sequence of sequencers);
#X obj 24 364 f;
#X obj 50 364 + 1;
#X msg 39 339 0;
#X obj 24 475 mod 4;
#N canvas 42 169 529 454 mode 0;
#X obj 70 30 loadbang;
#X msg 37 366 0;
#X obj 37 248 spigot;
#X msg 97 366 1;
#X obj 70 119 sel c s;
#X msg 70 222 0;
#X obj 70 195 t b b;
#X obj 113 196 t b b;
#X msg 113 222 1;
#X msg 121 144 Use "c" or "s" to select continuous or single measure
mode;
#X obj 121 166 print soundBankSeqError;
#X obj 37 342 sel;
#X obj 52 318 - 1;
#X obj 52 275 loadbang;
#X obj 37 411 s \$0-modeState;
#X obj 37 6 r \$0-beatNumber;
#X obj 52 297 f \$4;
#X obj 70 97 symbol \$3;
#X obj 94 55 r \$0-lMode;
#X obj 94 75 t b s;
#X connect 0 0 17 0;
#X connect 1 0 14 0;
#X connect 2 0 11 0;
#X connect 3 0 14 0;
#X connect 4 0 6 0;
#X connect 4 1 7 0;
#X connect 4 2 9 0;
#X connect 5 0 2 1;
#X connect 6 0 5 0;
#X connect 6 1 3 0;
#X connect 7 0 8 0;
#X connect 7 1 1 0;
#X connect 8 0 2 1;
#X connect 9 0 10 0;
#X connect 11 0 1 0;
#X connect 12 0 11 1;
#X connect 13 0 16 0;
#X connect 15 0 2 0;
#X connect 16 0 12 0;
#X connect 17 0 4 0;
#X connect 18 0 19 0;
#X connect 19 0 17 0;
#X connect 19 1 17 1;
#X restore 25 68 pd mode;
#X obj 230 99 inlet;
#X msg 228 316 1;
#X obj 228 345 s \$0-modeState;
#X obj 57 260 r \$0-modeState;
#X obj 51 386 loadbang;
#X obj 37 496 s \$0-beatNumber;
#X obj 40 235 s \$0-beatBang;
#N canvas 154 261 394 535 triggerNext 0;
#X obj 41 194 f;
#X obj 67 194 + 1;
#X msg 56 168 0;
#X obj 41 319 mod 4;
#X obj 68 221 loadbang;
#X obj 86 75 sel 1;
#X obj 41 137 spigot;
#X msg 86 100 1;
#X obj 86 50 r \$0-beatNumber;
#X obj 41 26 r \$0-beatBang;
#X obj 42 377 sel;
#X obj 42 428 outlet;
#X text 169 119 start counter on beat two \; send bang at end of cycle
\; one beat after end of actual \; sequencer cycle;
#X msg 127 102 0;
#X obj 42 402 t b b;
#X obj 57 355 - 1;
#X obj 139 354 bng 15 250 50 0 empty empty empty 17 7 0 10 -262144
-1 -1;
#X obj 68 297 f \$4;
#X obj 77 248 r \$0-lBeats;
#X obj 77 269 t b f;
#X connect 0 0 3 0;
#X connect 1 0 0 1;
#X connect 2 0 0 1;
#X connect 3 0 1 0;
#X connect 3 0 10 0;
#X connect 4 0 17 0;
#X connect 5 0 7 0;
#X connect 6 0 0 0;
#X connect 7 0 6 1;
#X connect 8 0 5 0;
#X connect 9 0 6 0;
#X connect 10 0 14 0;
#X connect 13 0 6 1;
#X connect 14 0 11 0;
#X connect 14 1 13 0;
#X connect 14 1 16 0;
#X connect 15 0 10 1;
#X connect 17 0 3 1;
#X connect 17 0 15 0;
#X connect 18 0 19 0;
#X connect 19 0 17 0;
#X connect 19 1 17 1;
#X restore 421 324 pd triggerNext;
#N canvas 135 388 506 531 tupletTempo 0;
#X obj 48 155 expr 1000/($f1/60);
#X floatatom 48 127 5 0 0 0 - - -;
#X obj 162 406 metro;
#X obj 162 382 tgl 15 0 empty empty empty 17 7 0 10 -262144 -1 -1 0
1;
#X floatatom 189 98 5 0 0 0 - - -;
#X obj 208 246 /;
#X obj 189 279 f;
#X obj 189 161 t b f f;
#X obj 162 476 outlet;
#X obj 233 475 outlet;
#X obj 233 435 r \$0-division;
#X obj 228 188 s \$0-division;
#X text 82 124 Tempo;
#X obj 90 5 loadbang;
#X obj 239 5 loadbang;
#X floatatom 234 301 5 0 0 0 - - -;
#X obj 208 215 t b f;
#X obj 147 220 t b f;
#X obj -83 7 inlet;
#X text 231 94 tuplet (multiplier);
#X obj 48 8 inlet;
#X obj 189 4 inlet;
#X obj 90 87 f \$1;
#X obj 239 66 f \$2;
#X obj 101 29 r \$0-lTempo;
#X obj 249 25 r \$0-lTuplet;
#X obj 101 49 t b f;
#X obj 249 45 t b f;
#X connect 0 0 17 0;
#X connect 1 0 0 0;
#X connect 2 0 8 0;
#X connect 3 0 2 0;
#X connect 4 0 7 0;
#X connect 5 0 6 1;
#X connect 6 0 15 0;
#X connect 6 0 2 1;
#X connect 7 0 6 0;
#X connect 7 1 16 0;
#X connect 7 2 11 0;
#X connect 10 0 9 0;
#X connect 13 0 22 0;
#X connect 14 0 23 0;
#X connect 16 0 5 0;
#X connect 16 1 5 1;
#X connect 17 0 6 0;
#X connect 17 1 5 0;
#X connect 18 0 3 0;
#X connect 20 0 1 0;
#X connect 21 0 4 0;
#X connect 22 0 1 0;
#X connect 23 0 4 0;
#X connect 24 0 26 0;
#X connect 25 0 27 0;
#X connect 26 0 22 0;
#X connect 26 1 22 1;
#X connect 27 0 23 0;
#X connect 27 1 23 1;
#X restore 24 198 pd tupletTempo;
#X obj 51 453 f \$4;
#X obj 23 619 f \$5;
#X obj 64 619 f \$6;
#X obj 102 620 f \$7;
#X obj 140 621 f \$8;
#X obj 177 621 f \$9;
#X obj 218 621 f \$10;
#X obj 256 622 f \$11;
#X obj 295 623 f \$12;
#X obj 331 624 f \$13;
#X obj 372 621 f \$14;
#X obj 410 623 f \$15;
#X obj 448 624 f \$16;
#X obj 485 625 f \$17;
#X obj 526 624 f \$18;
#X obj 565 625 f \$19;
#X obj 603 626 f \$20;
#X obj 24 169 tgl 15 0 empty empty empty 17 7 0 10 -262144 -1 -1 0
1;
#X msg 36 142 0;
#X obj 488 408 s \$0-stopMetro;
#X obj 36 120 r \$0-stopMetro;
#X obj 530 245 loadbang;
#X obj 530 329 sel c s;
#X obj 488 385 spigot;
#X msg 560 360 1;
#X msg 530 359 0;
#X text 346 4 3 mode: c = continuous \, s = single measure \; 4 number
of beats in cycle/measure (max 16) \; 5(-20) output message for each
beat (default 0);
#X text 274 4 1 tempo \; 2 tuplet;
#X obj 530 307 symbol \$3;
#X obj 24 96 inlet;
#X obj 171 99 inlet;
#X text 34 28 inlets: 1 continuous mode trigger \; 2 tempo 3 single
mode bang;
#X text 202 3 parameters:;
#X obj 326 100 inlet;
#X text 374 102 takes a trigger \; and delays it until \; end of cycle
;
#N canvas 195 470 512 439 tChooser 0;
#X text 40 36 if off \, trigger one cycle \, if on wait until end and
trigger one cycle;
#X obj 90 205 spigot;
#X obj 131 150 sel 0 1;
#X msg 131 174 1;
#X msg 161 174 0;
#X obj 211 209 spigot;
#X obj 244 137 sel 0 1;
#X msg 244 161 0;
#X msg 273 161 1;
#X obj 136 82 inlet;
#X obj 90 402 outlet;
#X obj 298 290 f;
#X obj 298 312 sel 1;
#X obj 314 196 t b b;
#X msg 314 217 0;
#X obj 90 82 inlet;
#X text 89 150 if off;
#X text 209 135 if on;
#X text 328 289 trigger on stop;
#X text 100 227 trigger now;
#X obj 265 216 tgl 15 0 empty empty empty 17 7 0 10 -262144 -1 -1 0
1;
#X obj 362 111 bng 15 250 50 0 empty empty empty 17 7 0 10 -262144
-1 -1;
#X obj 314 76 r \$0-tNext;
#X obj 142 205 tgl 15 0 empty empty empty 17 7 0 10 -262144 -1 -1 1
1;
#X floatatom 312 362 5 0 0 0 - - -;
#X floatatom 340 266 5 0 0 0 - - -;
#X obj 44 136 bng 15 250 50 0 empty empty empty 17 7 0 10 -262144 -1
-1;
#X obj 136 105 t f f;
#X connect 1 0 10 0;
#X connect 2 0 3 0;
#X connect 2 1 4 0;
#X connect 3 0 1 1;
#X connect 3 0 23 0;
#X connect 4 0 1 1;
#X connect 4 0 23 0;
#X connect 5 0 25 0;
#X connect 5 0 11 1;
#X connect 6 0 7 0;
#X connect 6 1 8 0;
#X connect 7 0 5 1;
#X connect 7 0 20 0;
#X connect 8 0 5 1;
#X connect 8 0 20 0;
#X connect 9 0 27 0;
#X connect 11 0 12 0;
#X connect 11 0 24 0;
#X connect 12 0 10 0;
#X connect 13 0 14 0;
#X connect 13 1 11 0;
#X connect 14 0 11 1;
#X connect 14 0 25 0;
#X connect 15 0 5 0;
#X connect 15 0 1 0;
#X connect 15 0 26 0;
#X connect 22 0 21 0;
#X connect 22 0 13 0;
#X connect 27 0 6 0;
#X connect 27 1 2 0;
#X restore 326 275 pd tChooser;
#X obj 351 439 s \$0-tNext;
#X obj 389 231 loadbang;
#X msg 389 252 0;
#X msg 326 121 1;
#X obj 516 97 inlet;
#X obj 62 406 r \$0-lBeats;
#N canvas 626 124 479 269 list-unpack 0;
#X obj 16 207 s \$0-lTempo;
#X obj 32 185 s \$0-lTuplet;
#X obj 48 164 s \$0-lMode;
#X obj 65 142 s \$0-lBeats;
#X obj 16 25 inlet;
#X obj 140 164 s \$0-lArguments;
#X obj 16 88 unpack 1 1 s 1 0 1 2 3 4 5 6 7 8 9 10 11 12 13 14 15;
#X obj 140 142 pack f f f f f f f f f f f f f f f f;
#X connect 4 0 6 0;
#X connect 6 0 0 0;
#X connect 6 1 1 0;
#X connect 6 2 2 0;
#X connect 6 3 3 0;
#X connect 6 4 7 0;
#X connect 6 5 7 1;
#X connect 6 6 7 2;
#X connect 6 7 7 3;
#X connect 6 8 7 4;
#X connect 6 9 7 5;
#X connect 6 10 7 6;
#X connect 6 11 7 7;
#X connect 6 12 7 8;
#X connect 6 13 7 9;
#X connect 6 14 7 10;
#X connect 6 15 7 11;
#X connect 6 16 7 12;
#X connect 6 17 7 13;
#X connect 6 18 7 14;
#X connect 6 19 7 15;
#X connect 7 0 5 0;
#X restore 516 144 pd list-unpack;
#X obj 403 509 r \$0-lArguments;
#X obj 403 532 unpack f f f f f f f f f f f f f f f f;
#X obj 62 427 t b f;
#X obj 554 266 r \$0-lMode;
#X obj 554 286 t b s;
#X connect 1 0 8 0;
#X connect 1 1 10 0;
#X connect 2 0 23 0;
#X connect 2 1 24 0;
#X connect 2 2 25 0;
#X connect 2 3 26 0;
#X connect 2 4 27 0;
#X connect 2 5 28 0;
#X connect 2 6 29 0;
#X connect 2 7 30 0;
#X connect 2 8 31 0;
#X connect 2 9 32 0;
#X connect 2 10 33 0;
#X connect 2 11 34 0;
#X connect 2 12 35 0;
#X connect 2 13 36 0;
#X connect 2 14 37 0;
#X connect 2 15 38 0;
#X connect 4 0 1 0;
#X connect 8 0 11 0;
#X connect 9 0 8 1;
#X connect 10 0 8 1;
#X connect 11 0 9 0;
#X connect 11 0 2 0;
#X connect 11 0 18 0;
#X connect 13 0 14 0;
#X connect 14 0 15 0;
#X connect 14 0 39 0;
#X connect 16 0 4 1;
#X connect 16 0 5 0;
#X connect 17 0 22 0;
#X connect 20 0 6 0;
#X connect 20 0 45 0;
#X connect 20 0 58 0;
#X connect 21 0 4 0;
#X connect 21 0 19 0;
#X connect 22 0 11 1;
#X connect 23 0 0 0;
#X connect 24 0 0 0;
#X connect 25 0 0 0;
#X connect 26 0 0 0;
#X connect 27 0 0 0;
#X connect 28 0 0 0;
#X connect 29 0 0 0;
#X connect 30 0 0 0;
#X connect 31 0 0 0;
#X connect 32 0 0 0;
#X connect 33 0 0 0;
#X connect 34 0 0 0;
#X connect 35 0 0 0;
#X connect 36 0 0 0;
#X connect 37 0 0 0;
#X connect 38 0 0 0;
#X connect 39 0 21 0;
#X connect 39 0 57 1;
#X connect 40 0 39 0;
#X connect 42 0 40 0;
#X connect 43 0 50 0;
#X connect 44 0 47 0;
#X connect 44 1 46 0;
#X connect 45 0 41 0;
#X connect 46 0 45 1;
#X connect 47 0 45 1;
#X connect 50 0 44 0;
#X connect 51 0 39 0;
#X connect 52 0 21 1;
#X connect 55 0 61 0;
#X connect 57 0 14 0;
#X connect 59 0 60 0;
#X connect 60 0 57 1;
#X connect 61 0 57 0;
#X connect 62 0 64 0;
#X connect 63 0 67 0;
#X connect 65 0 66 0;
#X connect 66 0 23 1;
#X connect 66 1 24 1;
#X connect 66 2 25 1;
#X connect 66 3 26 1;
#X connect 66 4 27 1;
#X connect 66 5 28 1;
#X connect 66 6 29 1;
#X connect 66 7 30 1;
#X connect 66 8 31 1;
#X connect 66 9 32 1;
#X connect 66 10 33 1;
#X connect 66 11 34 1;
#X connect 66 12 35 1;
#X connect 66 13 36 1;
#X connect 66 14 37 1;
#X connect 66 15 38 1;
#X connect 67 0 22 0;
#X connect 67 1 22 1;
#X connect 68 0 69 0;
#X connect 69 0 50 0;
#X connect 69 1 50 1;
