#N canvas 757 139 659 747 10;
#X obj 31 693 outlet;
#X obj 34 287 t b b;
#X obj 34 496 sel 0 1 2 3 4 5 6 7 8 9 10 11 12 13 14 15;
#X obj 1 1 cnv 15 655 60 empty empty soundBankTempoSeq 20 12 0 14 -184000
-66577 0;
#X obj 34 261 spigot;
#X text 400 4 parameters \; mode: c = continuous \, s = single measure
\; number of beats in cycle/measure (max 16) \; output message for
each beat (default 0);
#X text 301 86 in single measure mode \, send a bang \; to right inlet
to output one measure \; must be receiving metro bangs in left \; inlet
to set tempo;
#X floatatom 93 267 5 0 0 0 - - -;
#X obj 414 472 outlet;
#X text 457 471 send bang at beat after final \; beat (for triggering
\; sequence of sequencers);
#X obj 34 344 f;
#X obj 60 344 + 1;
#X msg 49 319 0;
#X obj 34 409 mod 4;
#N canvas 427 480 529 454 mode 0;
#X obj 70 66 loadbang;
#X msg 37 366 0;
#X obj 37 248 spigot;
#X msg 97 366 1;
#X obj 70 97 symbol \$1;
#X obj 70 119 sel c s;
#X msg 70 222 0;
#X obj 70 195 t b b;
#X obj 113 196 t b b;
#X msg 113 222 1;
#X msg 121 144 Use "c" or "s" to select continuous or single measure
mode;
#X obj 121 166 print soundBankSeqError;
#X obj 37 342 sel;
#X obj 52 318 - 1;
#X obj 52 275 loadbang;
#X obj 37 411 s \$0-modeState;
#X obj 37 26 r \$0-beatNumber;
#X obj 52 297 f \$4;
#X connect 0 0 4 0;
#X connect 1 0 15 0;
#X connect 2 0 12 0;
#X connect 3 0 15 0;
#X connect 4 0 5 0;
#X connect 5 0 7 0;
#X connect 5 1 8 0;
#X connect 5 2 10 0;
#X connect 6 0 2 1;
#X connect 7 0 6 0;
#X connect 7 1 3 0;
#X connect 8 0 9 0;
#X connect 8 1 1 0;
#X connect 9 0 2 1;
#X connect 10 0 11 0;
#X connect 12 0 1 0;
#X connect 13 0 12 1;
#X connect 14 0 17 0;
#X connect 16 0 2 0;
#X connect 17 0 13 0;
#X restore 586 83 pd mode;
#X obj 207 75 inlet;
#X msg 207 98 1;
#X obj 207 127 s \$0-modeState;
#X obj 67 240 r \$0-modeState;
#X obj 61 366 loadbang;
#X obj 47 440 s \$0-beatNumber;
#X obj 50 215 s \$0-beatBang;
#N canvas 1466 479 384 406 triggerNext 1;
#X obj 41 194 f;
#X obj 67 194 + 1;
#X msg 56 168 0;
#X obj 41 264 mod 4;
#X obj 68 221 loadbang;
#X obj 86 75 sel 1;
#X obj 41 137 spigot;
#X msg 86 100 1;
#X obj 86 50 r \$0-beatNumber;
#X obj 41 26 r \$0-beatBang;
#X obj 42 322 sel;
#X obj 42 373 outlet;
#X text 169 119 start counter on beat two \; send bang at end of cycle
\; one beat after end of actual \; sequencer cycle;
#X msg 127 102 0;
#X obj 42 347 t b b;
#X obj 57 300 - 1;
#X obj 139 318 bng 15 250 50 0 empty empty empty 17 7 0 10 -262144
-1 -1;
#X obj 68 242 f \$4;
#X connect 0 0 3 0;
#X connect 1 0 0 1;
#X connect 2 0 0 1;
#X connect 3 0 1 0;
#X connect 3 0 10 0;
#X connect 4 0 17 0;
#X connect 5 0 7 0;
#X connect 6 0 0 0;
#X connect 7 0 6 1;
#X connect 8 0 5 0;
#X connect 9 0 6 0;
#X connect 10 0 14 0;
#X connect 13 0 6 1;
#X connect 14 0 11 0;
#X connect 14 1 13 0;
#X connect 14 1 16 0;
#X connect 15 0 10 1;
#X connect 17 0 3 1;
#X connect 17 0 15 0;
#X restore 414 356 pd triggerNext;
#N canvas 998 283 817 748 tupletTempo 0;
#X obj 48 125 expr 1000/($f1/60);
#X floatatom 48 97 5 0 0 0 - - -;
#X obj 162 406 metro;
#X obj 162 382 tgl 15 0 empty empty empty 17 7 0 10 -262144 -1 -1 0
1;
#X floatatom 189 98 5 0 0 0 - - -;
#X obj 208 246 /;
#X obj 189 279 f;
#X obj 189 161 t b f f;
#X obj 162 476 outlet;
#X obj 233 475 outlet;
#X obj 233 435 r \$0-division;
#X obj 228 188 s \$0-division;
#X text 82 94 Tempo;
#X obj 85 5 loadbang;
#X obj 226 5 loadbang;
#X floatatom 234 301 5 0 0 0 - - -;
#X obj 208 215 t b f;
#X obj 147 220 t b f;
#X obj -83 7 inlet;
#X text 231 94 tuplet (multiplier);
#X obj 43 8 inlet;
#X obj 176 4 inlet;
#X obj 226 27 f \$3;
#X obj 85 37 f \$2;
#X connect 0 0 17 0;
#X connect 1 0 0 0;
#X connect 2 0 8 0;
#X connect 3 0 2 0;
#X connect 4 0 7 0;
#X connect 5 0 6 1;
#X connect 6 0 15 0;
#X connect 6 0 2 1;
#X connect 7 0 6 0;
#X connect 7 1 16 0;
#X connect 7 2 11 0;
#X connect 10 0 9 0;
#X connect 13 0 23 0;
#X connect 14 0 22 0;
#X connect 16 0 5 0;
#X connect 16 1 5 1;
#X connect 17 0 6 0;
#X connect 17 1 5 0;
#X connect 18 0 3 0;
#X connect 20 0 1 0;
#X connect 21 0 4 0;
#X connect 22 0 4 0;
#X connect 23 0 1 0;
#X restore 34 178 pd tupletTempo;
#X obj 61 387 f \$4;
#X obj 33 599 f \$5;
#X obj 74 599 f \$6;
#X obj 112 600 f \$7;
#X obj 150 601 f \$8;
#X obj 187 601 f \$9;
#X obj 228 601 f \$10;
#X obj 266 602 f \$11;
#X obj 305 603 f \$12;
#X obj 341 604 f \$13;
#X obj 382 601 f \$14;
#X obj 420 603 f \$15;
#X obj 458 604 f \$16;
#X obj 495 605 f \$17;
#X obj 536 604 f \$18;
#X obj 575 605 f \$19;
#X obj 613 606 f \$20;
#X obj 34 149 tgl 15 0 empty empty empty 17 7 0 10 -262144 -1 -1 0
1;
#X msg 34 104 0;
#X obj 481 440 s \$0-stopMetro;
#X obj 34 82 r \$0-stopMetro;
#X obj 522 317 loadbang;
#X obj 523 339 symbol \$1;
#X obj 523 361 sel c s;
#X obj 481 417 spigot;
#X msg 553 392 1;
#X msg 523 391 0;
#X connect 1 0 10 0;
#X connect 2 0 25 0;
#X connect 2 1 26 0;
#X connect 2 2 27 0;
#X connect 2 3 28 0;
#X connect 2 4 29 0;
#X connect 2 5 30 0;
#X connect 2 6 31 0;
#X connect 2 7 32 0;
#X connect 2 8 33 0;
#X connect 2 9 34 0;
#X connect 2 10 35 0;
#X connect 2 11 36 0;
#X connect 2 12 37 0;
#X connect 2 13 38 0;
#X connect 2 14 39 0;
#X connect 2 15 40 0;
#X connect 4 0 1 0;
#X connect 10 0 13 0;
#X connect 11 0 10 1;
#X connect 12 0 10 1;
#X connect 13 0 11 0;
#X connect 13 0 2 0;
#X connect 13 0 20 0;
#X connect 15 0 16 0;
#X connect 16 0 17 0;
#X connect 16 0 41 0;
#X connect 18 0 4 1;
#X connect 18 0 7 0;
#X connect 19 0 24 0;
#X connect 22 0 8 0;
#X connect 22 0 48 0;
#X connect 23 0 4 0;
#X connect 23 0 21 0;
#X connect 24 0 13 1;
#X connect 25 0 0 0;
#X connect 26 0 0 0;
#X connect 27 0 0 0;
#X connect 28 0 0 0;
#X connect 29 0 0 0;
#X connect 30 0 0 0;
#X connect 31 0 0 0;
#X connect 32 0 0 0;
#X connect 33 0 0 0;
#X connect 34 0 0 0;
#X connect 35 0 0 0;
#X connect 36 0 0 0;
#X connect 37 0 0 0;
#X connect 38 0 0 0;
#X connect 39 0 0 0;
#X connect 40 0 0 0;
#X connect 41 0 23 0;
#X connect 42 0 41 0;
#X connect 44 0 42 0;
#X connect 45 0 46 0;
#X connect 46 0 47 0;
#X connect 47 0 50 0;
#X connect 47 1 49 0;
#X connect 48 0 43 0;
#X connect 49 0 48 1;
#X connect 50 0 48 1;
