#N canvas 479 595 329 361 10;
#X obj 120 292 line;
#X msg 120 268 \$1 50;
#X obj 120 314 outlet;
#X obj 20 52 vsl 15 50 0 1 0 0 empty empty empty 0 -9 0 10 -262144
-1 -1 4900 1;
#X obj 53 45 symbol \$1;
#X obj 53 19 loadbang;
#X obj 20 174 spigot;
#X obj 20 217 dbtorms;
#X obj 20 198 * 100;
#X obj 120 172 spigot;
#X msg 53 99 1;
#X msg 122 100 0;
#X msg 153 100 1;
#X msg 85 99 0;
#X obj 53 70 sel db;
#X text 106 71 init as db if log values desired;
#X connect 0 0 2 0;
#X connect 1 0 0 0;
#X connect 3 0 6 0;
#X connect 3 0 9 0;
#X connect 4 0 14 0;
#X connect 5 0 4 0;
#X connect 6 0 8 0;
#X connect 7 0 1 0;
#X connect 8 0 7 0;
#X connect 9 0 1 0;
#X connect 10 0 6 1;
#X connect 11 0 6 1;
#X connect 12 0 9 1;
#X connect 13 0 9 1;
#X connect 14 0 10 0;
#X connect 14 0 13 0;
#X connect 14 1 11 0;
#X connect 14 1 12 0;
#X coords 0 -1 1 1 15 55 2 20 50;
