#N canvas 94 34 1048 219 10;
#X obj 50 66 bng 15 250 50 0 \$0bs1 \$0br1 empty 17 7 0 10 -262144
-1 -1;
#X obj 65 66 bng 15 250 50 0 \$0bs2 \$0br2 empty 17 7 0 10 -262144
-1 -1;
#X obj 80 66 bng 15 250 50 0 \$0bs3 \$0br3 empty 17 7 0 10 -262144
-1 -1;
#X obj 95 66 bng 15 250 50 0 \$0bs4 \$0br4 empty 17 7 0 10 -262144
-1 -1;
#X obj 110 66 bng 15 250 50 0 \$0bs5 \$0br5 empty 17 7 0 10 -262144
-1 -1;
#X obj 125 66 bng 15 250 50 0 \$0bs6 \$0br6 empty 17 7 0 10 -262144
-1 -1;
#X obj 140 66 bng 15 250 50 0 \$0bs7 \$0br7 empty 17 7 0 10 -262144
-1 -1;
#X obj 155 66 bng 15 250 50 0 \$0bs8 \$0br8 empty 17 7 0 10 -262144
-1 -1;
#X obj 50 83 vsl 15 64 0 1 0 0 \$0-volSliderOut1 \$0-volSliderIn1 1
5 8 0 10 -262144 -1 -1 5670 1;
#X obj 65 83 vsl 15 64 0 1 0 0 \$0-volSliderOut2 \$0-volSliderIn2 2
5 8 0 10 -262144 -1 -1 5670 1;
#X obj 80 83 vsl 15 64 0 1 0 0 \$0-volSliderOut3 \$0-volSliderIn3 3
5 8 0 10 -262144 -1 -1 5670 1;
#X obj 95 83 vsl 15 64 0 1 0 0 \$0-volSliderOut4 \$0-volSliderIn4 4
5 8 0 10 -262144 -1 -1 5670 1;
#X obj 110 83 vsl 15 64 0 1 0 0 \$0-volSliderOut5 \$0-volSliderIn5
5 5 8 0 10 -262144 -1 -1 5670 1;
#X obj 125 83 vsl 15 64 0 1 0 0 \$0-volSliderOut6 \$0-volSliderIn6
6 5 8 0 10 -262144 -1 -1 5670 1;
#X obj 140 83 vsl 15 64 0 1 0 0 \$0-volSliderOut7 \$0-volSliderIn7
7 5 8 0 10 -262144 -1 -1 5670 1;
#X obj 155 83 vsl 15 64 0 1 0 0 \$0-volSliderOut8 \$0-volSliderIn8
8 5 8 0 10 -262144 -1 -1 5670 1;
#X obj 170 66 bng 15 250 50 0 \$0bs9 \$0br9 empty 17 7 0 10 -262144
-1 -1;
#X obj 185 66 bng 15 250 50 0 \$0bs10 \$0br10 empty 17 7 0 10 -262144
-1 -1;
#X obj 914 91 bng 15 250 50 0 \$0bs11 \$0br11 empty 17 7 0 10 -262144
-1 -1;
#X obj 929 91 bng 15 250 50 0 \$0bs12 \$0br12 empty 17 7 0 10 -262144
-1 -1;
#X obj 944 91 bng 15 250 50 0 \$0bs13 \$0br13 empty 17 7 0 10 -262144
-1 -1;
#X obj 959 91 bng 15 250 50 0 \$0bs14 \$0br14 empty 17 7 0 10 -262144
-1 -1;
#X obj 974 91 bng 15 250 50 0 \$0bs15 \$0br15 empty 17 7 0 10 -262144
-1 -1;
#X obj 989 91 bng 15 250 50 0 \$0bs16 \$0br16 empty 17 7 0 10 -262144
-1 -1;
#X obj 170 83 vsl 15 64 0 1 0 0 \$0-volSliderOut9 \$0-volSliderIn9
9 5 8 0 10 -262144 -1 -1 5670 1;
#X obj 185 83 vsl 15 64 0 1 0 0 \$0-volSliderOut10 \$0-volSliderIn10
10 3 8 0 10 -262144 -1 -1 5670 1;
#X obj 914 108 vsl 15 64 0 1 0 0 \$0-volSliderOut11 \$0-volSliderIn11
11 3 8 0 10 -262144 -1 -1 5670 1;
#X obj 929 108 vsl 15 64 0 1 0 0 \$0-volSliderOut12 \$0-volSliderIn12
12 3 8 0 10 -262144 -1 -1 5670 1;
#X obj 944 108 vsl 15 64 0 1 0 0 \$0-volSliderOut13 \$0-volSliderIn13
13 3 8 0 10 -262144 -1 -1 5670 1;
#X obj 959 108 vsl 15 64 0 1 0 0 \$0-volSliderOut14 \$0-volSliderIn14
14 3 8 0 10 -262144 -1 -1 5670 1;
#X obj 974 108 vsl 15 64 0 1 0 0 \$0-volSliderOut15 \$0-volSliderIn15
15 3 8 0 10 -262144 -1 -1 5670 1;
#X obj 989 108 vsl 15 64 0 1 0 0 \$0-volSliderOut16 \$0-volSliderIn16
16 3 8 0 10 -262144 -1 -1 5670 1;
#N canvas 206 23 571 308 keypad 0;
#X obj -2 139 sel 97;
#X obj 65 140 sel 115;
#X obj 183 141 sel 102;
#X obj 126 140 sel 100;
#X obj 251 141 sel 103;
#X obj 314 141 sel 104;
#X obj 374 141 sel 106;
#X obj 434 141 sel 107;
#X text -5 28 patch assumes receiving key info from a spigoted key
object with send "key";
#X obj -2 114 r key-\$0;
#X obj 251 116 r key-\$0;
#X obj 65 115 r key-\$0;
#X obj 314 116 r key-\$0;
#X obj 126 115 r key-\$0;
#X obj 374 116 r key-\$0;
#X obj 183 116 r key-\$0;
#X obj 434 116 r key-\$0;
#X obj -2 164 s \$0br1;
#X obj 65 166 s \$0br2;
#X obj 126 165 s \$0br3;
#X obj 183 166 s \$0br4;
#X obj 251 166 s \$0br5;
#X obj 314 166 s \$0br6;
#X obj 374 166 s \$0br7;
#X obj 434 166 s \$0br8;
#X obj 21 203 r key-\$0;
#X obj 274 205 r key-\$0;
#X obj 88 204 r key-\$0;
#X obj 337 205 r key-\$0;
#X obj 149 204 r key-\$0;
#X obj 397 205 r key-\$0;
#X obj 206 205 r key-\$0;
#X obj 457 205 r key-\$0;
#X obj 21 253 s \$0br9;
#X obj 88 255 s \$0br10;
#X obj 149 254 s \$0br11;
#X obj 204 255 s \$0br12;
#X obj 274 255 s \$0br13;
#X obj 337 255 s \$0br14;
#X obj 398 255 s \$0br15;
#X obj 457 255 s \$0br16;
#X obj 21 228 sel 122;
#X obj 88 229 sel 120;
#X obj 149 229 sel 99;
#X obj 206 230 sel 118;
#X obj 274 230 sel 98;
#X obj 337 230 sel 110;
#X obj 397 231 sel 109;
#X obj 457 230 sel 44;
#X connect 0 0 17 0;
#X connect 1 0 18 0;
#X connect 2 0 20 0;
#X connect 3 0 19 0;
#X connect 4 0 21 0;
#X connect 5 0 22 0;
#X connect 6 0 23 0;
#X connect 7 0 24 0;
#X connect 9 0 0 0;
#X connect 10 0 4 0;
#X connect 11 0 1 0;
#X connect 12 0 5 0;
#X connect 13 0 3 0;
#X connect 14 0 6 0;
#X connect 15 0 2 0;
#X connect 16 0 7 0;
#X connect 25 0 41 0;
#X connect 26 0 45 0;
#X connect 27 0 42 0;
#X connect 28 0 46 0;
#X connect 29 0 43 0;
#X connect 30 0 47 0;
#X connect 31 0 44 0;
#X connect 32 0 48 0;
#X connect 41 0 33 0;
#X connect 42 0 34 0;
#X connect 43 0 35 0;
#X connect 44 0 36 0;
#X connect 45 0 37 0;
#X connect 46 0 38 0;
#X connect 47 0 39 0;
#X connect 48 0 40 0;
#X restore 798 128 pd keypad;
#X obj 798 16 key;
#X floatatom 798 42 5 0 0 0 - - -;
#X obj 831 13 tgl 15 0 empty empty empty 17 7 0 10 -262144 -1 -1 0
1;
#X obj 798 72 spigot;
#X text 850 9 key control ON/OFF;
#X obj 798 100 s key-\$0;
#N canvas 588 192 462 393 initialValues 0;
#X obj -663 23 loadbang;
#X obj -663 56 f \$0;
#X obj -592 24 bng 15 250 50 0 empty empty empty 17 7 0 10 -262144
-1 -1;
#X msg -663 100 \; \$1-volSliderIn1 0.9 \; \$1-volSliderIn2 0.9 \;
\$1-volSliderIn3 0.9 \; \$1-volSliderIn4 0.9 \; \$1-volSliderIn5 0.9
\; \$1-volSliderIn6 0.9 \; \$1-volSliderIn7 0.9 \; \$1-volSliderIn8
0.9 \; \$1-volSliderIn9 0.9 \; \$1-volSliderIn10 0.9 \; \$1-volSliderIn11
0.9 \; \$1-volSliderIn12 0.9 \; \$1-volSliderIn13 0.9 \; \$1-volSliderIn14
0.9 \; \$1-volSliderIn15 0.9 \; \$1-volSliderIn16 0.9 \; \$1-masterIn
1 \; \$1-volSliderInM 0.9 \;;
#X connect 0 0 1 0;
#X connect 1 0 3 0;
#X connect 2 0 1 0;
#X restore 526 95 pd initialValues;
#X obj 381 44 inlet;
#X obj 381 180 s;
#X obj 381 100 pack \$0 f;
#X obj 381 71 t b f;
#X msg 381 128 symbol \$1bs\$2;
#X obj 381 155 t b s;
#N canvas 62 129 384 477 dividedArrayBank 0;
#N canvas 101 23 458 655 table_load 0;
#X msg 124 370 open \$1 \, 1;
#X obj 311 53 block~ 1024 1 64;
#X obj 124 423 readsf~ 1;
#X obj 124 340 t a b;
#X obj 90 228 soundfile_info;
#X obj 90 263 unpack f s f;
#X obj 254 392 pack f f;
#X obj 254 368 f \$0;
#X obj 254 336 t b f;
#X obj 221 288 s \$0-samplesize;
#X obj 289 598 outlet;
#X msg 90 196 read \$1;
#X obj 90 110 inlet;
#X obj 210 246 print size;
#X obj 32 365 /;
#X obj 32 312 t b f;
#X obj 32 339 f;
#X obj 32 417 s \$0-rectime;
#X obj 32 390 * 1000;
#X obj 90 144 pack s;
#X obj 126 556 table \$0-fullRecording;
#X obj 124 510 tabwrite~ \$0-fullRecording;
#X obj 305 477 symbol;
#X obj 305 511 print loaded;
#X msg 253 414 \; \$1-fullRecording resize \$2;
#X connect 0 0 2 0;
#X connect 2 0 21 0;
#X connect 2 1 10 0;
#X connect 2 1 22 0;
#X connect 3 0 0 0;
#X connect 3 1 21 0;
#X connect 4 0 5 0;
#X connect 5 0 15 0;
#X connect 5 1 3 0;
#X connect 5 2 8 0;
#X connect 5 2 9 0;
#X connect 5 2 13 0;
#X connect 5 2 16 1;
#X connect 6 0 24 0;
#X connect 7 0 6 0;
#X connect 8 0 7 0;
#X connect 8 1 6 1;
#X connect 11 0 4 0;
#X connect 12 0 19 0;
#X connect 14 0 18 0;
#X connect 15 0 16 0;
#X connect 15 1 14 1;
#X connect 16 0 14 0;
#X connect 18 0 17 0;
#X connect 19 0 11 0;
#X connect 19 0 22 1;
#X connect 22 0 23 0;
#X restore -62 99 pd table_load;
#N canvas 123 23 477 572 tableDivider 0;
#X obj 81 27 inlet;
#X obj 337 317 f \$0;
#X obj 280 344 pack \$1 \$2;
#X obj 337 292 loadbang;
#X obj 280 212 / 10;
#X obj 280 236 + 2;
#X obj 292 267 s \$0-snippetSize;
#X obj 280 151 arraysize \$0-fullRecording;
#X obj 295 179 s \$0-fullArraySize;
#X obj 81 107 t b b;
#X msg 280 372 \; \$2-snippet0 resize \$1 \; \$2-snippet1 resize \$1
\; \$2-snippet2 resize \$1 \; \$2-snippet3 resize \$1 \; \$2-snippet4
resize \$1 \; \$2-snippet5 resize \$1 \; \$2-snippet6 resize \$1 \;
\$2-snippet7 resize \$1 \; \$2-snippet8 resize \$1 \; \$2-snippet9
resize \$1 \;;
#X obj 132 265 f \$0;
#X obj 132 242 loadbang;
#X obj 198 245 bng 15 250 50 0 empty empty empty 17 7 0 10 -262144
-1 -1;
#X obj 106 219 r \$0-fullArraySize;
#X obj 81 287 snippet 0;
#X obj 81 337 snippet 2;
#X obj 81 311 snippet 1;
#X obj 81 360 snippet 3;
#X obj 81 382 snippet 4;
#X obj 81 405 snippet 5;
#X obj 81 429 snippet 6;
#X obj 81 455 snippet 7;
#X obj 81 478 snippet 8;
#X obj 81 500 snippet 9;
#X connect 0 0 9 0;
#X connect 1 0 2 1;
#X connect 2 0 10 0;
#X connect 3 0 1 0;
#X connect 4 0 5 0;
#X connect 5 0 2 0;
#X connect 5 0 6 0;
#X connect 7 0 4 0;
#X connect 7 0 8 0;
#X connect 9 0 15 0;
#X connect 9 0 16 0;
#X connect 9 0 17 0;
#X connect 9 0 18 0;
#X connect 9 0 19 0;
#X connect 9 0 20 0;
#X connect 9 0 21 0;
#X connect 9 0 22 0;
#X connect 9 0 23 0;
#X connect 9 0 24 0;
#X connect 9 1 7 0;
#X connect 11 0 15 2;
#X connect 11 0 16 2;
#X connect 11 0 17 2;
#X connect 11 0 18 2;
#X connect 11 0 19 2;
#X connect 11 0 20 2;
#X connect 11 0 21 2;
#X connect 11 0 22 2;
#X connect 11 0 23 2;
#X connect 11 0 24 2;
#X connect 12 0 11 0;
#X connect 13 0 11 0;
#X connect 14 0 15 1;
#X connect 14 0 16 1;
#X connect 14 0 17 1;
#X connect 14 0 18 1;
#X connect 14 0 19 1;
#X connect 14 0 20 1;
#X connect 14 0 21 1;
#X connect 14 0 22 1;
#X connect 14 0 23 1;
#X connect 14 0 24 1;
#X restore -62 129 pd tableDivider;
#X obj -64 185 table \$0-snippet0;
#X obj -64 208 table \$0-snippet1;
#X obj -63 232 table \$0-snippet2;
#X obj -62 255 table \$0-snippet3;
#X obj -62 281 table \$0-snippet4;
#X obj -62 304 table \$0-snippet5;
#X obj -61 328 table \$0-snippet6;
#X obj -60 351 table \$0-snippet7;
#X obj -61 375 table \$0-snippet8;
#X obj -61 398 table \$0-snippet9;
#N canvas 455 100 360 482 playback 0;
#N canvas 1285 452 422 507 player0 0;
#X obj 96 81 r \$0-snippetSize;
#X obj 81 430 outlet~;
#X obj 81 311 vline~;
#X msg 144 270 0;
#X obj 155 136 samplerate~;
#X obj 81 270 pack f f;
#X obj 140 160 /;
#X obj 82 48 t b b b;
#X obj 81 349 tabread4~ \$0-snippet0;
#X obj 140 105 t f b;
#X obj 81 218 f;
#X obj 125 217 f;
#X obj 140 186 * 1000;
#X msg 261 270 set \$1-snippet\$2;
#X obj 82 26 r \$0bs1;
#X obj 262 205 f \$0;
#X obj 262 237 pack f f;
#X obj 262 146 f \$1;
#X obj 262 178 t b f;
#X obj 262 124 loadbang;
#X obj 262 80 bng 15 250 50 0 empty empty empty 17 7 0 10 -262144 -1
-1;
#X obj 81 386 hip~ 5;
#X connect 0 0 9 0;
#X connect 0 0 10 1;
#X connect 2 0 8 0;
#X connect 3 0 2 0;
#X connect 4 0 6 1;
#X connect 5 0 2 0;
#X connect 6 0 12 0;
#X connect 7 0 10 0;
#X connect 7 1 11 0;
#X connect 7 2 3 0;
#X connect 8 0 21 0;
#X connect 9 0 6 0;
#X connect 9 1 4 0;
#X connect 10 0 5 0;
#X connect 11 0 5 1;
#X connect 12 0 11 1;
#X connect 14 0 7 0;
#X connect 15 0 16 0;
#X connect 16 0 13 0;
#X connect 17 0 18 0;
#X connect 18 0 15 0;
#X connect 18 1 16 1;
#X connect 19 0 17 0;
#X connect 20 0 17 0;
#X connect 21 0 1 0;
#X restore 41 16 pd player0;
#X obj 41 445 throw~ bombs;
#N canvas 1285 452 422 507 player1 0;
#X obj 96 81 r \$0-snippetSize;
#X obj 81 430 outlet~;
#X obj 81 311 vline~;
#X msg 144 270 0;
#X obj 155 136 samplerate~;
#X obj 81 270 pack f f;
#X obj 140 160 /;
#X obj 82 48 t b b b;
#X obj 140 105 t f b;
#X obj 81 218 f;
#X obj 125 217 f;
#X obj 140 186 * 1000;
#X msg 261 270 set \$1-snippet\$2;
#X obj 262 205 f \$0;
#X obj 262 237 pack f f;
#X obj 262 146 f \$1;
#X obj 262 178 t b f;
#X obj 262 124 loadbang;
#X obj 262 80 bng 15 250 50 0 empty empty empty 17 7 0 10 -262144 -1
-1;
#X obj 81 386 hip~ 5;
#X obj 82 26 r \$0bs2;
#X obj 81 349 tabread4~ \$0-snippet1;
#X connect 0 0 8 0;
#X connect 0 0 9 1;
#X connect 2 0 21 0;
#X connect 3 0 2 0;
#X connect 4 0 6 1;
#X connect 5 0 2 0;
#X connect 6 0 11 0;
#X connect 7 0 9 0;
#X connect 7 1 10 0;
#X connect 7 2 3 0;
#X connect 8 0 6 0;
#X connect 8 1 4 0;
#X connect 9 0 5 0;
#X connect 10 0 5 1;
#X connect 11 0 10 1;
#X connect 13 0 14 0;
#X connect 14 0 12 0;
#X connect 15 0 16 0;
#X connect 16 0 13 0;
#X connect 16 1 14 1;
#X connect 17 0 15 0;
#X connect 18 0 15 0;
#X connect 19 0 1 0;
#X connect 20 0 7 0;
#X connect 21 0 19 0;
#X restore 57 45 pd player1;
#N canvas 1285 452 422 507 player2 0;
#X obj 96 81 r \$0-snippetSize;
#X obj 81 430 outlet~;
#X obj 81 311 vline~;
#X msg 144 270 0;
#X obj 155 136 samplerate~;
#X obj 81 270 pack f f;
#X obj 140 160 /;
#X obj 82 48 t b b b;
#X obj 140 105 t f b;
#X obj 81 218 f;
#X obj 125 217 f;
#X obj 140 186 * 1000;
#X msg 261 270 set \$1-snippet\$2;
#X obj 262 205 f \$0;
#X obj 262 237 pack f f;
#X obj 262 146 f \$1;
#X obj 262 178 t b f;
#X obj 262 124 loadbang;
#X obj 262 80 bng 15 250 50 0 empty empty empty 17 7 0 10 -262144 -1
-1;
#X obj 81 386 hip~ 5;
#X obj 82 26 r \$0bs3;
#X obj 81 349 tabread4~ \$0-snippet2;
#X connect 0 0 8 0;
#X connect 0 0 9 1;
#X connect 2 0 21 0;
#X connect 3 0 2 0;
#X connect 4 0 6 1;
#X connect 5 0 2 0;
#X connect 6 0 11 0;
#X connect 7 0 9 0;
#X connect 7 1 10 0;
#X connect 7 2 3 0;
#X connect 8 0 6 0;
#X connect 8 1 4 0;
#X connect 9 0 5 0;
#X connect 10 0 5 1;
#X connect 11 0 10 1;
#X connect 13 0 14 0;
#X connect 14 0 12 0;
#X connect 15 0 16 0;
#X connect 16 0 13 0;
#X connect 16 1 14 1;
#X connect 17 0 15 0;
#X connect 18 0 15 0;
#X connect 19 0 1 0;
#X connect 20 0 7 0;
#X connect 21 0 19 0;
#X restore 75 74 pd player2;
#N canvas 1285 452 422 507 player3 0;
#X obj 96 81 r \$0-snippetSize;
#X obj 81 430 outlet~;
#X obj 81 311 vline~;
#X msg 144 270 0;
#X obj 155 136 samplerate~;
#X obj 81 270 pack f f;
#X obj 140 160 /;
#X obj 82 48 t b b b;
#X obj 140 105 t f b;
#X obj 81 218 f;
#X obj 125 217 f;
#X obj 140 186 * 1000;
#X msg 261 270 set \$1-snippet\$2;
#X obj 262 205 f \$0;
#X obj 262 237 pack f f;
#X obj 262 146 f \$1;
#X obj 262 178 t b f;
#X obj 262 124 loadbang;
#X obj 262 80 bng 15 250 50 0 empty empty empty 17 7 0 10 -262144 -1
-1;
#X obj 81 386 hip~ 5;
#X obj 82 26 r \$0bs4;
#X obj 81 349 tabread4~ \$0-snippet3;
#X connect 0 0 8 0;
#X connect 0 0 9 1;
#X connect 2 0 21 0;
#X connect 3 0 2 0;
#X connect 4 0 6 1;
#X connect 5 0 2 0;
#X connect 6 0 11 0;
#X connect 7 0 9 0;
#X connect 7 1 10 0;
#X connect 7 2 3 0;
#X connect 8 0 6 0;
#X connect 8 1 4 0;
#X connect 9 0 5 0;
#X connect 10 0 5 1;
#X connect 11 0 10 1;
#X connect 13 0 14 0;
#X connect 14 0 12 0;
#X connect 15 0 16 0;
#X connect 16 0 13 0;
#X connect 16 1 14 1;
#X connect 17 0 15 0;
#X connect 18 0 15 0;
#X connect 19 0 1 0;
#X connect 20 0 7 0;
#X connect 21 0 19 0;
#X restore 91 103 pd player3;
#N canvas 1285 452 422 507 player4 0;
#X obj 96 81 r \$0-snippetSize;
#X obj 81 430 outlet~;
#X obj 81 311 vline~;
#X msg 144 270 0;
#X obj 155 136 samplerate~;
#X obj 81 270 pack f f;
#X obj 140 160 /;
#X obj 82 48 t b b b;
#X obj 140 105 t f b;
#X obj 81 218 f;
#X obj 125 217 f;
#X obj 140 186 * 1000;
#X msg 261 270 set \$1-snippet\$2;
#X obj 262 205 f \$0;
#X obj 262 237 pack f f;
#X obj 262 146 f \$1;
#X obj 262 178 t b f;
#X obj 262 124 loadbang;
#X obj 262 80 bng 15 250 50 0 empty empty empty 17 7 0 10 -262144 -1
-1;
#X obj 81 386 hip~ 5;
#X obj 82 26 r \$0bs5;
#X obj 81 349 tabread4~ \$0-snippet4;
#X connect 0 0 8 0;
#X connect 0 0 9 1;
#X connect 2 0 21 0;
#X connect 3 0 2 0;
#X connect 4 0 6 1;
#X connect 5 0 2 0;
#X connect 6 0 11 0;
#X connect 7 0 9 0;
#X connect 7 1 10 0;
#X connect 7 2 3 0;
#X connect 8 0 6 0;
#X connect 8 1 4 0;
#X connect 9 0 5 0;
#X connect 10 0 5 1;
#X connect 11 0 10 1;
#X connect 13 0 14 0;
#X connect 14 0 12 0;
#X connect 15 0 16 0;
#X connect 16 0 13 0;
#X connect 16 1 14 1;
#X connect 17 0 15 0;
#X connect 18 0 15 0;
#X connect 19 0 1 0;
#X connect 20 0 7 0;
#X connect 21 0 19 0;
#X restore 111 128 pd player4;
#N canvas 1285 452 422 507 player5 0;
#X obj 96 81 r \$0-snippetSize;
#X obj 81 430 outlet~;
#X obj 81 311 vline~;
#X msg 144 270 0;
#X obj 155 136 samplerate~;
#X obj 81 270 pack f f;
#X obj 140 160 /;
#X obj 82 48 t b b b;
#X obj 140 105 t f b;
#X obj 81 218 f;
#X obj 125 217 f;
#X obj 140 186 * 1000;
#X msg 261 270 set \$1-snippet\$2;
#X obj 262 205 f \$0;
#X obj 262 237 pack f f;
#X obj 262 146 f \$1;
#X obj 262 178 t b f;
#X obj 262 124 loadbang;
#X obj 262 80 bng 15 250 50 0 empty empty empty 17 7 0 10 -262144 -1
-1;
#X obj 81 386 hip~ 5;
#X obj 82 25 r \$0bs6;
#X obj 81 349 tabread4~ \$0-snippet5;
#X connect 0 0 8 0;
#X connect 0 0 9 1;
#X connect 2 0 21 0;
#X connect 3 0 2 0;
#X connect 4 0 6 1;
#X connect 5 0 2 0;
#X connect 6 0 11 0;
#X connect 7 0 9 0;
#X connect 7 1 10 0;
#X connect 7 2 3 0;
#X connect 8 0 6 0;
#X connect 8 1 4 0;
#X connect 9 0 5 0;
#X connect 10 0 5 1;
#X connect 11 0 10 1;
#X connect 13 0 14 0;
#X connect 14 0 12 0;
#X connect 15 0 16 0;
#X connect 16 0 13 0;
#X connect 16 1 14 1;
#X connect 17 0 15 0;
#X connect 18 0 15 0;
#X connect 19 0 1 0;
#X connect 20 0 7 0;
#X connect 21 0 19 0;
#X restore 127 157 pd player5;
#N canvas 1285 452 422 507 player6 0;
#X obj 96 81 r \$0-snippetSize;
#X obj 81 430 outlet~;
#X obj 81 311 vline~;
#X msg 144 270 0;
#X obj 155 136 samplerate~;
#X obj 81 270 pack f f;
#X obj 140 160 /;
#X obj 82 48 t b b b;
#X obj 140 105 t f b;
#X obj 81 218 f;
#X obj 125 217 f;
#X obj 140 186 * 1000;
#X msg 261 270 set \$1-snippet\$2;
#X obj 262 205 f \$0;
#X obj 262 237 pack f f;
#X obj 262 146 f \$1;
#X obj 262 178 t b f;
#X obj 262 124 loadbang;
#X obj 262 80 bng 15 250 50 0 empty empty empty 17 7 0 10 -262144 -1
-1;
#X obj 81 386 hip~ 5;
#X obj 82 26 r \$0bs7;
#X obj 81 349 tabread4~ \$0-snippet6;
#X connect 0 0 8 0;
#X connect 0 0 9 1;
#X connect 2 0 21 0;
#X connect 3 0 2 0;
#X connect 4 0 6 1;
#X connect 5 0 2 0;
#X connect 6 0 11 0;
#X connect 7 0 9 0;
#X connect 7 1 10 0;
#X connect 7 2 3 0;
#X connect 8 0 6 0;
#X connect 8 1 4 0;
#X connect 9 0 5 0;
#X connect 10 0 5 1;
#X connect 11 0 10 1;
#X connect 13 0 14 0;
#X connect 14 0 12 0;
#X connect 15 0 16 0;
#X connect 16 0 13 0;
#X connect 16 1 14 1;
#X connect 17 0 15 0;
#X connect 18 0 15 0;
#X connect 19 0 1 0;
#X connect 20 0 7 0;
#X connect 21 0 19 0;
#X restore 146 186 pd player6;
#N canvas 1285 452 422 507 player7 0;
#X obj 96 81 r \$0-snippetSize;
#X obj 81 430 outlet~;
#X obj 81 311 vline~;
#X msg 144 270 0;
#X obj 155 136 samplerate~;
#X obj 81 270 pack f f;
#X obj 140 160 /;
#X obj 82 48 t b b b;
#X obj 140 105 t f b;
#X obj 81 218 f;
#X obj 125 217 f;
#X obj 140 186 * 1000;
#X msg 261 270 set \$1-snippet\$2;
#X obj 262 205 f \$0;
#X obj 262 237 pack f f;
#X obj 262 146 f \$1;
#X obj 262 178 t b f;
#X obj 262 124 loadbang;
#X obj 262 80 bng 15 250 50 0 empty empty empty 17 7 0 10 -262144 -1
-1;
#X obj 81 386 hip~ 5;
#X obj 82 26 r \$0bs8;
#X obj 81 349 tabread4~ \$0-snippet7;
#X connect 0 0 8 0;
#X connect 0 0 9 1;
#X connect 2 0 21 0;
#X connect 3 0 2 0;
#X connect 4 0 6 1;
#X connect 5 0 2 0;
#X connect 6 0 11 0;
#X connect 7 0 9 0;
#X connect 7 1 10 0;
#X connect 7 2 3 0;
#X connect 8 0 6 0;
#X connect 8 1 4 0;
#X connect 9 0 5 0;
#X connect 10 0 5 1;
#X connect 11 0 10 1;
#X connect 13 0 14 0;
#X connect 14 0 12 0;
#X connect 15 0 16 0;
#X connect 16 0 13 0;
#X connect 16 1 14 1;
#X connect 17 0 15 0;
#X connect 18 0 15 0;
#X connect 19 0 1 0;
#X connect 20 0 7 0;
#X connect 21 0 19 0;
#X restore 164 215 pd player7;
#N canvas 1285 452 422 507 player8 0;
#X obj 96 81 r \$0-snippetSize;
#X obj 81 430 outlet~;
#X obj 81 311 vline~;
#X msg 144 270 0;
#X obj 155 136 samplerate~;
#X obj 81 270 pack f f;
#X obj 140 160 /;
#X obj 82 48 t b b b;
#X obj 140 105 t f b;
#X obj 81 218 f;
#X obj 125 217 f;
#X obj 140 186 * 1000;
#X msg 261 270 set \$1-snippet\$2;
#X obj 262 205 f \$0;
#X obj 262 237 pack f f;
#X obj 262 146 f \$1;
#X obj 262 178 t b f;
#X obj 262 124 loadbang;
#X obj 262 80 bng 15 250 50 0 empty empty empty 17 7 0 10 -262144 -1
-1;
#X obj 81 386 hip~ 5;
#X obj 83 25 r \$0bs9;
#X obj 81 349 tabread4~ \$0-snippet8;
#X connect 0 0 8 0;
#X connect 0 0 9 1;
#X connect 2 0 21 0;
#X connect 3 0 2 0;
#X connect 4 0 6 1;
#X connect 5 0 2 0;
#X connect 6 0 11 0;
#X connect 7 0 9 0;
#X connect 7 1 10 0;
#X connect 7 2 3 0;
#X connect 8 0 6 0;
#X connect 8 1 4 0;
#X connect 9 0 5 0;
#X connect 10 0 5 1;
#X connect 11 0 10 1;
#X connect 13 0 14 0;
#X connect 14 0 12 0;
#X connect 15 0 16 0;
#X connect 16 0 13 0;
#X connect 16 1 14 1;
#X connect 17 0 15 0;
#X connect 18 0 15 0;
#X connect 19 0 1 0;
#X connect 20 0 7 0;
#X connect 21 0 19 0;
#X restore 182 244 pd player8;
#N canvas 835 113 422 507 player9 0;
#X obj 96 81 r \$0-snippetSize;
#X obj 81 430 outlet~;
#X obj 81 311 vline~;
#X msg 144 270 0;
#X obj 155 136 samplerate~;
#X obj 81 270 pack f f;
#X obj 140 160 /;
#X obj 82 48 t b b b;
#X obj 140 105 t f b;
#X obj 81 218 f;
#X obj 125 217 f;
#X obj 140 186 * 1000;
#X msg 261 270 set \$1-snippet\$2;
#X obj 262 205 f \$0;
#X obj 262 237 pack f f;
#X obj 262 146 f \$1;
#X obj 262 178 t b f;
#X obj 262 124 loadbang;
#X obj 262 80 bng 15 250 50 0 empty empty empty 17 7 0 10 -262144 -1
-1;
#X obj 81 386 hip~ 5;
#X obj 82 26 r \$0bs10;
#X obj 81 349 tabread4~ \$0-snippet9;
#X connect 0 0 8 0;
#X connect 0 0 9 1;
#X connect 2 0 21 0;
#X connect 3 0 2 0;
#X connect 4 0 6 1;
#X connect 5 0 2 0;
#X connect 6 0 11 0;
#X connect 7 0 9 0;
#X connect 7 1 10 0;
#X connect 7 2 3 0;
#X connect 8 0 6 0;
#X connect 8 1 4 0;
#X connect 9 0 5 0;
#X connect 10 0 5 1;
#X connect 11 0 10 1;
#X connect 13 0 14 0;
#X connect 14 0 12 0;
#X connect 15 0 16 0;
#X connect 16 0 13 0;
#X connect 16 1 14 1;
#X connect 17 0 15 0;
#X connect 18 0 15 0;
#X connect 19 0 1 0;
#X connect 20 0 7 0;
#X connect 21 0 19 0;
#X restore 200 273 pd player9;
#N canvas 71 230 677 306 volSliders-------------- 0;
#X obj 31 260 outlet~;
#X obj 31 34 inlet~;
#X obj 80 33 inlet~;
#X obj 128 34 inlet~;
#X obj 176 33 inlet~;
#X obj 225 32 inlet~;
#X obj 273 33 inlet~;
#X obj 329 32 inlet~;
#X obj 378 31 inlet~;
#X obj 426 32 inlet~;
#X obj 481 33 inlet~;
#X obj 32 181 *~;
#X obj 80 180 *~;
#X obj 128 182 *~;
#X obj 180 179 *~;
#X obj 230 178 *~;
#X obj 278 180 *~;
#X obj 330 180 *~;
#X obj 380 179 *~;
#X obj 428 181 *~;
#X obj 480 179 *~;
#X obj 46 72 r \$0-volSliderOut1;
#X obj 93 101 r \$0-volSliderOut2;
#X obj 142 133 r \$0-volSliderOut3;
#X obj 198 63 r \$0-volSliderOut4;
#X obj 245 91 r \$0-volSliderOut5;
#X obj 294 123 r \$0-volSliderOut6;
#X obj 340 65 r \$0-volSliderOut7;
#X obj 387 93 r \$0-volSliderOut8;
#X obj 437 125 r \$0-volSliderOut9;
#X obj 494 154 r \$0-volSliderOut10;
#X obj 525 35 inlet~;
#X obj 524 181 *~;
#X obj 538 70 r \$0-volSliderOutM;
#X connect 1 0 11 0;
#X connect 2 0 12 0;
#X connect 3 0 13 0;
#X connect 4 0 14 0;
#X connect 5 0 15 0;
#X connect 6 0 16 0;
#X connect 7 0 17 0;
#X connect 8 0 18 0;
#X connect 9 0 19 0;
#X connect 10 0 20 0;
#X connect 11 0 0 0;
#X connect 12 0 0 0;
#X connect 13 0 0 0;
#X connect 14 0 0 0;
#X connect 15 0 0 0;
#X connect 16 0 0 0;
#X connect 17 0 0 0;
#X connect 18 0 0 0;
#X connect 19 0 0 0;
#X connect 20 0 0 0;
#X connect 21 0 11 1;
#X connect 22 0 12 1;
#X connect 23 0 13 1;
#X connect 24 0 14 1;
#X connect 25 0 15 1;
#X connect 26 0 16 1;
#X connect 27 0 17 1;
#X connect 28 0 18 1;
#X connect 29 0 19 1;
#X connect 30 0 20 1;
#X connect 31 0 32 0;
#X connect 32 0 0 0;
#X connect 33 0 32 1;
#X restore 41 306 pd volSliders--------------;
#X obj 41 420 *~;
#X obj 83 342 r \$0-masterOut;
#X obj 83 382 line;
#X msg 83 362 \$1 50;
#N canvas 55 97 422 507 playerFull 0;
#X obj 81 430 outlet~;
#X obj 81 311 vline~;
#X msg 144 270 0;
#X obj 155 136 samplerate~;
#X obj 81 270 pack f f;
#X obj 140 160 /;
#X obj 82 48 t b b b;
#X obj 140 105 t f b;
#X obj 81 218 f;
#X obj 125 217 f;
#X obj 140 186 * 1000;
#X msg 261 270 set \$1-snippet\$2;
#X obj 262 205 f \$0;
#X obj 262 237 pack f f;
#X obj 262 146 f \$1;
#X obj 262 178 t b f;
#X obj 262 124 loadbang;
#X obj 262 80 bng 15 250 50 0 empty empty empty 17 7 0 10 -262144 -1
-1;
#X obj 81 386 hip~ 5;
#X obj 96 81 r \$0-fullArraySize;
#X obj 81 349 tabread4~ \$0-fullRecording;
#X obj 82 26 r \$0bsM;
#X connect 1 0 20 0;
#X connect 2 0 1 0;
#X connect 3 0 5 1;
#X connect 4 0 1 0;
#X connect 5 0 10 0;
#X connect 6 0 8 0;
#X connect 6 1 9 0;
#X connect 6 2 2 0;
#X connect 7 0 5 0;
#X connect 7 1 3 0;
#X connect 8 0 4 0;
#X connect 9 0 4 1;
#X connect 10 0 9 1;
#X connect 12 0 13 0;
#X connect 13 0 11 0;
#X connect 14 0 15 0;
#X connect 15 0 12 0;
#X connect 15 1 13 1;
#X connect 16 0 14 0;
#X connect 17 0 14 0;
#X connect 18 0 0 0;
#X connect 19 0 7 0;
#X connect 19 0 8 1;
#X connect 20 0 18 0;
#X connect 21 0 6 0;
#X restore 219 299 pd playerFull;
#X connect 0 0 11 0;
#X connect 2 0 11 1;
#X connect 3 0 11 2;
#X connect 4 0 11 3;
#X connect 5 0 11 4;
#X connect 6 0 11 5;
#X connect 7 0 11 6;
#X connect 8 0 11 7;
#X connect 9 0 11 8;
#X connect 10 0 11 9;
#X connect 11 0 12 0;
#X connect 12 0 1 0;
#X connect 13 0 15 0;
#X connect 14 0 12 1;
#X connect 15 0 14 0;
#X connect 16 0 11 10;
#X restore 137 183 pd playback;
#X obj -62 31 inlet;
#X connect 0 0 1 0;
#X connect 13 0 0 0;
#X restore 530 62 pd dividedArrayBank;
#X obj 530 35 inlet;
#X floatatom 478 164 5 0 0 0 - - -;
#X obj 200 68 vsl 30 79 0 1 0 0 \$0-masterOut \$0-masterIn Mstr 4 8
0 10 -216960 -1 -1 7800 1;
#N canvas 617 112 482 282 nanoPad 0;
#X obj 29 105 s \$0br1;
#X obj 48 126 s \$0br2;
#X obj 68 153 s \$0br3;
#X obj 88 174 s \$0br4;
#X obj 108 105 s \$0br5;
#X obj 128 126 s \$0br6;
#X obj 148 153 s \$0br7;
#X obj 168 175 s \$0br8;
#X obj 201 105 s \$0br9;
#X obj 220 129 s \$0br10;
#X obj 240 153 s \$0br11;
#X obj 260 177 s \$0br12;
#X obj 280 105 s \$0br13;
#X obj 300 129 s \$0br14;
#X obj 320 153 s \$0br15;
#X obj 340 177 s \$0br16;
#X obj 108 46 nanoPad2 4;
#X connect 16 0 0 0;
#X connect 16 1 1 0;
#X connect 16 2 2 0;
#X connect 16 3 3 0;
#X connect 16 4 4 0;
#X connect 16 5 5 0;
#X connect 16 6 6 0;
#X connect 16 7 7 0;
#X connect 16 8 8 0;
#X connect 16 9 9 0;
#X connect 16 10 10 0;
#X connect 16 11 11 0;
#X connect 16 12 12 0;
#X connect 16 13 13 0;
#X connect 16 14 14 0;
#X connect 16 15 15 0;
#X restore 791 163 pd nanoPad;
#X obj 230 66 bng 15 250 50 0 \$0bsM \$0brM empty 17 7 0 10 -262144
-1 -1;
#X obj 230 83 vsl 15 64 0 1 0 0 \$0-volSliderOutM \$0-volSliderInM
M 5 8 0 10 -262144 -1 -1 5670 1;
#X connect 33 0 34 0;
#X connect 34 0 36 0;
#X connect 35 0 36 1;
#X connect 36 0 38 0;
#X connect 40 0 43 0;
#X connect 40 0 48 0;
#X connect 42 0 44 0;
#X connect 43 0 42 0;
#X connect 43 1 42 1;
#X connect 44 0 45 0;
#X connect 45 0 41 0;
#X connect 45 1 41 1;
#X connect 47 0 46 0;
#X coords 0 -1 1 1 195 100 1 50 50;
