#N canvas 789 323 516 581 10;
#X obj 76 201 until;
#X obj 76 271 f;
#X obj 76 179 f;
#X obj 76 303 t f f;
#X obj 135 81 / 10;
#X obj 76 393 tabread \$0-fullRecording;
#X obj 107 270 + 1;
#X msg 91 483 0 0;
#X obj 91 441 r \$0-snippetSize;
#X msg 124 483 0 \$1;
#X obj 91 462 t b f;
#X msg 103 244 1;
#X obj 76 50 inlet;
#X obj 76 77 t b b;
#X obj 76 366 +;
#X obj 76 534 tabwrite \$0-snippet1;
#X msg 292 400 set \$1-snippet\$2;
#X obj 292 376 pack f f;
#X obj 292 298 f \$1;
#X obj 292 321 t b f;
#X obj 91 344 *;
#X obj 292 52 inlet;
#X obj 292 351 f;
#X obj 135 49 inlet;
#X msg 331 262 set \$1-fullRecording;
#X obj 292 239 t b f f;
#X connect 0 0 1 0;
#X connect 1 0 3 0;
#X connect 1 0 6 0;
#X connect 2 0 0 0;
#X connect 3 0 14 0;
#X connect 3 1 15 1;
#X connect 4 0 2 1;
#X connect 4 0 20 0;
#X connect 5 0 15 0;
#X connect 6 0 1 1;
#X connect 7 0 15 0;
#X connect 8 0 10 0;
#X connect 9 0 15 0;
#X connect 10 0 7 0;
#X connect 10 1 9 0;
#X connect 11 0 1 1;
#X connect 12 0 13 0;
#X connect 13 0 2 0;
#X connect 13 1 11 0;
#X connect 14 0 5 0;
#X connect 16 0 15 0;
#X connect 17 0 16 0;
#X connect 18 0 19 0;
#X connect 18 0 20 1;
#X connect 19 0 22 0;
#X connect 19 1 17 1;
#X connect 20 0 14 1;
#X connect 21 0 25 0;
#X connect 22 0 17 0;
#X connect 23 0 4 0;
#X connect 24 0 5 0;
#X connect 25 0 18 0;
#X connect 25 1 22 1;
#X connect 25 2 24 0;
